<?xml version="1.0" standalone="no"?>
<!DOCTYPE svg PUBLIC "-//W3C//DTD SVG 1.1//EN" "http://www.w3.org/Graphics/SVG/1.1/DTD/svg11.dtd" >
<svg xmlns="http://www.w3.org/2000/svg">
<metadata></metadata>
<defs>
<font id="articulat_cfdemi_bold" horiz-adv-x="1130" >
<font-face units-per-em="2048" ascent="1638" descent="-410" />
<missing-glyph horiz-adv-x="595" />
<glyph unicode="&#xfb01;" horiz-adv-x="1136" d="M41 897v168h162v80q0 184 86 245.5t227 61.5q74 0 146 -16v-162q-55 8 -117 8q-74 0 -104.5 -31.5t-30.5 -109.5v-76h237v-168h-237v-897h-207v897h-162zM817 0v1065h207v-1065h-207zM817 1249v185h207v-185h-207z" />
<glyph unicode="&#xfb02;" horiz-adv-x="1136" d="M41 897v168h162v80q0 184 86 245.5t227 61.5q74 0 146 -16v-162q-55 8 -117 8q-74 0 -104.5 -31.5t-30.5 -109.5v-76h237v-168h-237v-897h-207v897h-162zM817 0v1434h207v-1434h-207z" />
<glyph horiz-adv-x="0" />
<glyph horiz-adv-x="682" />
<glyph unicode=" "  horiz-adv-x="595" />
<glyph unicode="&#x09;" horiz-adv-x="595" />
<glyph unicode="&#xa0;" horiz-adv-x="595" />
<glyph unicode="!" horiz-adv-x="522" d="M143 0v250h236v-250h-236zM150 422v1012h221v-1012h-221z" />
<glyph unicode="&#x22;" horiz-adv-x="804" d="M122 1038h207v396h-207v-396zM516 1038h207v396h-207v-396z" />
<glyph unicode="#" horiz-adv-x="1218" d="M92 379v164h213l35 348h-195v164h211l39 379h158l-39 -379h256l37 379h160l-39 -379h198v-164h-215l-34 -348h198v-164h-215l-37 -379h-159l38 379h-256l-36 -379h-158l37 379h-197zM463 543h256l35 348h-256z" />
<glyph unicode="$" horiz-adv-x="1234" d="M84 424h219q16 -104 74.5 -167.5t179.5 -76.5v482l-53 12q-186 43 -284.5 134t-98.5 259q0 164 114.5 266.5t321.5 114.5v170h123v-170q190 -14 300 -113.5t130 -271.5h-217q-12 84 -63.5 131t-149.5 59v-430l51 -12q215 -47 319.5 -146.5t104.5 -277.5 q0 -180 -129 -284.5t-346 -116.5v-170h-123v170q-213 14 -334 128.5t-139 309.5zM340 1061q0 -78 47 -130t154 -75l16 -4v403q-111 -12 -164 -65t-53 -129zM680 178q256 21 256 211q0 104 -60.5 159.5t-179.5 82.5l-16 4v-457z" />
<glyph unicode="%" horiz-adv-x="1492" d="M92 1126q0 152 74 235t192 83q121 0 195 -83t74 -235q0 -156 -74 -240.5t-195 -84.5q-118 0 -192 85t-74 240zM240 1128q0 -102 31.5 -146t90.5 -44q56 0 86.5 44t30.5 146q0 96 -30.5 137.5t-86.5 41.5q-59 0 -90.5 -41t-31.5 -138zM248 0l844 1438l153 -4l-839 -1434 h-158zM866 315q0 152 74 235t193 83q121 0 194.5 -83t73.5 -235q0 -156 -76 -240.5t-197 -84.5q-118 0 -190 85t-72 240zM1014 317q0 -104 31.5 -147t91.5 -43q55 0 85.5 44t30.5 146q0 178 -116 179q-123 0 -123 -179z" />
<glyph unicode="&#x26;" horiz-adv-x="1394" d="M115 395q0 102 43 176t107.5 120t158.5 95l20 11q-84 94 -131 174t-47 166q0 143 100.5 236t282.5 93q115 0 201 -44t131 -118.5t45 -166.5q0 -121 -71.5 -215.5t-227.5 -176.5l309 -325q61 102 97 260h196q-55 -244 -158 -404l162 -170l-143 -124l-139 151 q-168 -152 -435 -151q-139 0 -253.5 52t-181 146t-66.5 215zM340 408q0 -98 80 -165t211 -67q170 0 291 100l-355 388l-55 -29q-172 -88 -172 -227zM449 1141q0 -62 37.5 -121t115.5 -141l8 4q233 117 234 258q0 76 -51.5 123t-143.5 47q-96 0 -148 -47t-52 -123z" />
<glyph unicode="'" horiz-adv-x="411" d="M102 1038h207v396h-207v-396z" />
<glyph unicode="(" horiz-adv-x="593" d="M92 655q0 260 54.5 474t162.5 397h197q-102 -186 -154.5 -400.5t-52.5 -470.5q0 -524 207 -921h-197q-109 195 -163 421t-54 500z" />
<glyph unicode=")" horiz-adv-x="593" d="M92 -266q207 397 207 921q0 256 -52 470t-155 401h197q108 -183 162.5 -397t54.5 -474q0 -274 -54.5 -500.5t-162.5 -420.5h-197z" />
<glyph unicode="*" horiz-adv-x="1003" d="M154 1143l41 172l225 -68l-6 236h172l-4 -236l225 68l43 -172l-213 -58l141 -190l-147 -92l-129 182l-129 -182l-150 92l144 190zM483 1133l19 -17l16 17l-2 8h-31z" />
<glyph unicode="+" horiz-adv-x="1107" d="M92 487v181h365v366h192v-366h367v-181h-367v-366h-192v366h-365z" />
<glyph unicode="," horiz-adv-x="466" d="M102 -57v252h265v-281q0 -160 -76 -219.5t-189 -63.5v68q47 18 64.5 61t17.5 119v64h-82z" />
<glyph unicode="-" horiz-adv-x="894" d="M92 496v147h711v-147h-711z" />
<glyph unicode="." horiz-adv-x="440" d="M102 0v250h236v-250h-236z" />
<glyph unicode="/" horiz-adv-x="927" d="M82 2l557 1432h207l-557 -1432h-207z" />
<glyph unicode="0" horiz-adv-x="1273" d="M74 690v53q0 231 76.5 390t203.5 237t283 78t284 -78t204.5 -236.5t76.5 -390.5v-53q0 -233 -76.5 -392t-204.5 -235.5t-284 -76.5t-284 76.5t-203.5 235.5t-75.5 392zM281 690q0 -238 91 -381t265 -143t266 144.5t92 379.5v53q0 236 -92 381.5t-266 145.5t-265 -145.5 t-91 -381.5v-53z" />
<glyph unicode="1" horiz-adv-x="700" d="M82 1055v172q98 10 170 64.5t98 142.5h207v-1434h-207v1167q-45 -51 -117.5 -80.5t-150.5 -31.5z" />
<glyph unicode="2" d="M92 956v37q0 207 121 331t346 124q147 0 254 -55.5t161 -149.5t54 -211t-53 -200.5t-132 -141t-237 -149.5q-143 -84 -212.5 -169t-69.5 -190v-14h714v-168h-944v43q0 141 35 246.5t122 198t245 188.5l36 22q102 61 157.5 103.5t91.5 98.5t36 132q0 117 -71.5 175.5 t-186.5 58.5t-189.5 -65.5t-74.5 -207.5v-37h-203z" />
<glyph unicode="3" horiz-adv-x="1220" d="M92 438h203q4 -133 92 -205.5t221 -72.5q135 0 224.5 64.5t89.5 195.5q0 127 -86 190.5t-267 63.5h-55v151h55q158 0 218.5 68t60.5 166t-68.5 154.5t-179.5 56.5q-117 0 -188.5 -64.5t-71.5 -199.5h-203q0 209 125 325.5t338 116.5q137 0 239.5 -50t158 -137t55.5 -194 q0 -117 -72 -196.5t-184 -108.5q77 -8 154 -49t127 -116t50 -181q0 -129 -62 -227.5t-181 -153.5t-281 -55q-156 0 -272.5 59t-178 162.5t-61.5 236.5z" />
<glyph unicode="4" horiz-adv-x="1173" d="M82 367v168l649 899h207v-899h164v-168h-164v-367h-207v367h-649zM279 535h452v643z" />
<glyph unicode="5" horiz-adv-x="1228" d="M102 440h199q4 -129 94 -204.5t219 -75.5q131 0 222.5 79.5t91.5 241.5q0 111 -46 184.5t-117 108.5t-142 35q-180 0 -287 -135h-191l111 760h756v-181h-619l-61 -413q41 53 127 97t200 44q134 0 242.5 -60.5t172 -174t63.5 -265.5q0 -236 -140.5 -368.5t-382.5 -132.5 q-156 0 -272.5 59t-178 163.5t-61.5 237.5z" />
<glyph unicode="6" horiz-adv-x="1228" d="M102 692q0 332 128 544t409 212q147 0 249.5 -56.5t157 -142.5t60.5 -178h-207q-35 199 -260 199q-195 0 -266.5 -152.5t-69.5 -363.5q29 84 123 146.5t223 62.5q123 0 234.5 -55.5t182.5 -165t71 -267.5q0 -164 -71 -275.5t-185.5 -165.5t-249.5 -54q-242 0 -385.5 180 t-143.5 532zM334 477q0 -98 42 -169.5t109.5 -109.5t145.5 -38q129 0 215 77.5t86 237.5q0 152 -87 235t-214 83q-123 0 -210 -82t-87 -234z" />
<glyph unicode="7" horiz-adv-x="1013" d="M72 1255v179h870v-179q-401 -610 -485 -1255h-215q102 659 508 1255h-678z" />
<glyph unicode="8" horiz-adv-x="1222" d="M92 430q0 135 72 230.5t196 144.5q-84 47 -131 123t-47 164q0 100 50.5 181t148.5 128t231 47t230.5 -47t147.5 -128t50 -181q0 -88 -46 -164t-130 -123q125 -49 195.5 -144.5t70.5 -230.5q0 -139 -68.5 -239.5t-186 -152.5t-263.5 -52q-145 0 -264 52t-187.5 152.5 t-68.5 239.5zM305 442q0 -123 82 -199.5t225 -76.5q144 0 226 76.5t82 199.5q0 133 -87.5 208t-220.5 75q-135 0 -221 -75t-86 -208zM371 1077q0 -96 63.5 -156.5t177.5 -60.5q115 0 177.5 60.5t62.5 156.5q0 92 -62.5 149.5t-177.5 57.5q-116 0 -178.5 -57.5t-62.5 -149.5z " />
<glyph unicode="9" horiz-adv-x="1228" d="M92 956q0 164 70.5 275.5t185.5 166t250 54.5q242 0 385 -180t143 -533q0 -330 -129 -542.5t-409 -212.5q-147 0 -249.5 56t-156 142t-59.5 178h205q39 -197 260 -196q195 0 267.5 152.5t68.5 361.5q-27 -84 -121 -146.5t-223 -62.5q-123 0 -235 55.5t-182.5 165 t-70.5 266.5zM297 956q0 -152 87 -234.5t214 -82.5q78 0 145.5 36t109.5 106.5t42 172.5q0 98 -42 170t-109.5 110t-145.5 38q-129 0 -215 -78t-86 -238z" />
<glyph unicode=":" horiz-adv-x="440" d="M102 0v250h236v-250h-236zM102 825v250h236v-250h-236z" />
<glyph unicode=";" horiz-adv-x="466" d="M102 -57v252h265v-281q0 -160 -76 -219.5t-189 -63.5v68q47 18 64.5 61t17.5 119v64h-82zM102 815v250h236v-250h-236z" />
<glyph unicode="&#x3c;" horiz-adv-x="1038" d="M92 399l854 -399v197l-667 297l667 297v196l-854 -399v-189z" />
<glyph unicode="=" horiz-adv-x="952" d="M92 332v147h768v-147h-768zM92 659v148h768v-148h-768z" />
<glyph unicode="&#x3e;" horiz-adv-x="1038" d="M92 0l854 399v189l-854 399v-196l668 -297l-668 -297v-197z" />
<glyph unicode="?" horiz-adv-x="1099" d="M92 977h207q0 139 67.5 216t192.5 77q121 0 181.5 -59.5t60.5 -159.5q0 -68 -35 -111t-111 -102q-63 -49 -102 -88t-66.5 -101.5t-27.5 -150.5v-76h219v76q0 88 39 141t117 113q57 43 92 77.5t58.5 89t23.5 132.5q0 186 -125 291.5t-324 105.5q-211 0 -340 -119 t-127 -352zM453 0v250h235v-250h-235z" />
<glyph unicode="@" horiz-adv-x="1550" d="M72 709q0 215 99 384t260 262t341 93q184 0 347 -94t261.5 -261t98.5 -374q0 -119 -40 -203t-105.5 -126t-141.5 -42q-152 0 -209 164q-27 -74 -94.5 -121t-155.5 -47q-78 0 -149.5 39t-118.5 122t-47 204q0 117 47 196.5t118.5 118.5t145.5 39q70 0 131.5 -40t77.5 -95 v123h154v-439q0 -57 27.5 -87.5t78.5 -30.5q137 0 137 225q0 164 -74.5 298t-203.5 210t-285 76q-145 0 -274 -77t-207 -213t-78 -304q0 -158 79 -291t208 -211t272 -78q88 0 175 29.5t151 81.5l170 -47q-86 -98 -215 -152.5t-281 -54.5q-178 0 -340 93t-261 258t-99 372z M571 709q0 -94 49.5 -151.5t129.5 -57.5q79 0 126.5 58t47.5 151q0 90 -47.5 143t-126.5 53q-80 0 -129.5 -53t-49.5 -143z" />
<glyph unicode="A" horiz-adv-x="1454" d="M53 0l582 1434h184l582 -1434h-240l-125 330h-618l-125 -330h-240zM481 496h492l-246 645z" />
<glyph unicode="B" horiz-adv-x="1263" d="M115 0v1434h526q213 0 329.5 -98.5t116.5 -264.5q0 -104 -52 -177t-146 -108q137 -41 214 -138t77 -220q0 -205 -131 -316.5t-396 -111.5h-538zM336 188h317q299 0 299 242q0 111 -70.5 180.5t-226.5 69.5h-319v-492zM336 852h323q102 0 154.5 54.5t52.5 150.5 q0 88 -52 138t-161 50h-317v-393z" />
<glyph unicode="C" horiz-adv-x="1339" d="M74 717q0 360 171 546.5t460 186.5q221 0 371.5 -104.5t185.5 -298.5h-215q-41 106 -121 156t-217 50q-195 0 -301.5 -133t-106.5 -403t106.5 -403.5t301.5 -133.5q139 0 220 50.5t122 158.5h215q-35 -197 -186.5 -301t-374.5 -104q-289 0 -460 186t-171 547z" />
<glyph unicode="D" horiz-adv-x="1376" d="M115 0v1434h489q330 0 505 -186.5t175 -530.5t-175 -530.5t-505 -186.5h-489zM336 197h250q245 0 356 126t111 394t-111 394t-356 126h-250v-1040z" />
<glyph unicode="E" d="M115 0v1434h921v-197h-700v-410h577v-186h-577v-444h721v-197h-942z" />
<glyph unicode="F" horiz-adv-x="1085" d="M115 0v1434h907v-197h-686v-436h561v-187h-561v-614h-221z" />
<glyph unicode="G" horiz-adv-x="1390" d="M74 717q0 362 171 547.5t466 185.5q213 0 364.5 -98.5t186.5 -270.5h-207q-47 88 -127 130t-215 42q-199 0 -305.5 -133t-106.5 -403q0 -268 106.5 -402.5t303.5 -134.5q203 0 300 88t105 291h-305v174h473h33q2 -29 2 -82q0 -344 -146.5 -505.5t-461.5 -161.5 q-295 0 -466 186t-171 547z" />
<glyph unicode="H" horiz-adv-x="1351" d="M115 0v1434h221v-639h680v639h221v-1434h-221v618h-680v-618h-221z" />
<glyph unicode="I" horiz-adv-x="450" d="M115 0v1434h221v-1434h-221z" />
<glyph unicode="J" horiz-adv-x="1069" d="M63 154l138 137q45 -58 106.5 -87.5t151.5 -29.5q88 0 149.5 31t98 120t36.5 255v854h222v-891q0 -287 -143.5 -422t-360.5 -135q-252 0 -398 168z" />
<glyph unicode="K" horiz-adv-x="1402" d="M115 0v1434h221v-807l692 807h258l-594 -680l649 -754h-251l-517 616l-237 -272v-344h-221z" />
<glyph unicode="L" horiz-adv-x="1056" d="M115 0v1434h221v-1237h637v-197h-858z" />
<glyph unicode="M" horiz-adv-x="1720" d="M115 0v1434h221l524 -1155l524 1155h222v-1434h-222v977l-438 -977h-172l-438 977v-977h-221z" />
<glyph unicode="N" horiz-adv-x="1347" d="M115 0v1434h219l678 -1063v1063h221v-1434h-227l-670 1063v-1063h-221z" />
<glyph unicode="O" horiz-adv-x="1419" d="M74 717q0 360 171 546.5t466 186.5t466 -186.5t171 -546.5t-171 -546.5t-466 -186.5t-466 186t-171 547zM301 717q0 -270 106.5 -403.5t303.5 -133.5q194 0 300.5 133t106.5 404q0 270 -106.5 403t-300.5 133q-197 0 -303.5 -133t-106.5 -403z" />
<glyph unicode="P" horiz-adv-x="1232" d="M115 0v1434h538q256 0 382 -125t126 -351q0 -221 -126 -346t-382 -125h-317v-487h-221zM336 684h319q142 0 207.5 68.5t65.5 205.5q0 139 -65.5 209t-207.5 70h-319v-553z" />
<glyph unicode="Q" horiz-adv-x="1468" d="M74 717q0 360 171 546.5t466 186.5t466 -186.5t171 -546.5q0 -285 -113 -465l160 -162l-133 -129l-148 150q-162 -127 -403 -127q-295 0 -466 186t-171 547zM301 717q0 -270 106.5 -403.5t303.5 -133.5q156 0 254 84l-217 219l133 127l190 -192q47 123 47 299 q0 270 -106.5 403t-300.5 133q-197 0 -303.5 -133t-106.5 -403z" />
<glyph unicode="R" horiz-adv-x="1306" d="M115 0v1434h583q500 0 500 -430q0 -236 -217 -340q119 -41 170 -115t51 -195v-114q0 -107 8.5 -155t32.5 -85h-233q-25 37 -33 85t-8 155v108q0 215 -219 215h-414v-563h-221zM336 743h377q131 0 191.5 60.5t60.5 193.5q0 129 -63.5 184.5t-205.5 55.5h-360v-494z" />
<glyph unicode="S" horiz-adv-x="1282" d="M84 424h227q20 -119 95 -183.5t235 -64.5q166 0 247 55.5t81 157.5q0 104 -62.5 159.5t-185.5 82.5l-201 43q-195 43 -297 134t-102 259q0 174 135 278.5t375 104.5q229 0 363 -99.5t157 -287.5h-225q-16 98 -86 146t-209 48q-145 0 -213 -55t-68 -141q0 -78 48 -130 t159 -75l201 -45q223 -47 331.5 -145.5t108.5 -276.5q0 -195 -152.5 -300t-406.5 -105q-252 0 -393.5 115.5t-161.5 324.5z" />
<glyph unicode="T" horiz-adv-x="1150" d="M63 1237v197h623h401v-197h-401v-1237h-221v1237h-402z" />
<glyph unicode="U" horiz-adv-x="1347" d="M115 541v893h221v-871q0 -190 88 -285.5t250 -95.5t250 95.5t88 285.5v871h221v-893q0 -170 -70.5 -296t-197.5 -192.5t-291 -66.5q-166 0 -292 66.5t-196.5 191.5t-70.5 297z" />
<glyph unicode="V" horiz-adv-x="1427" d="M53 1434h234l426 -1164l428 1164h233l-569 -1434h-182z" />
<glyph unicode="W" horiz-adv-x="2084" d="M63 1434h228l299 -1110l344 1110h217l344 -1110l299 1110h227l-413 -1434h-203l-363 1112l-362 -1112h-203z" />
<glyph unicode="X" horiz-adv-x="1406" d="M72 0l510 745l-469 689h241l351 -510l348 510h243l-471 -689l510 -745h-241l-389 569l-392 -569h-241z" />
<glyph unicode="Y" horiz-adv-x="1376" d="M53 1434h250l385 -689l385 689h250l-524 -887v-547h-221v547z" />
<glyph unicode="Z" horiz-adv-x="1239" d="M92 0v197l803 1040h-795v197h1020v-197l-805 -1040h832v-197h-1055z" />
<glyph unicode="[" horiz-adv-x="559" d="M92 -266v1792h375v-178h-168v-1436h168v-178h-375z" />
<glyph unicode="\" horiz-adv-x="968" d="M125 1434h207l555 -1432h-205z" />
<glyph unicode="]" horiz-adv-x="559" d="M92 -86h168v1432h-168v180h375v-1792h-375v180z" />
<glyph unicode="^" horiz-adv-x="997" d="M92 952l342 482h129l342 -482h-164l-241 344l-244 -344h-164z" />
<glyph unicode="_" horiz-adv-x="1208" d="M92 0h1024v-180h-1024v180z" />
<glyph unicode="`" horiz-adv-x="409" d="M0 1452l225 -262h185l-117 262h-293z" />
<glyph unicode="a" horiz-adv-x="1126" d="M63 295q0 274 371 323l58 7q117 14 184 27.5t108 35.5v19q0 121 -57 164.5t-174 43.5q-102 0 -159.5 -31.5t-69.5 -99.5h-197q14 143 124.5 218t301.5 75q229 0 333.5 -97t104.5 -323v-430q-1 -45 19 -65q18 -19 56 -19h7v-139q-35 -14 -84 -14q-86 0 -136 39t-50 121v49 q-35 -72 -125 -144.5t-250 -72.5t-262.5 79.5t-102.5 233.5zM272 307q0 -74 48.5 -120t138.5 -46q131 0 211 63.5t114 129.5v211q-39 -18 -94 -29.5t-186 -32.5l-58 -8q-92 -14 -133 -55t-41 -113z" />
<glyph unicode="b" horiz-adv-x="1159" d="M115 0v1434h207v-543q96 186 327 186q111 0 216.5 -58t173 -181t67.5 -306q0 -184 -67.5 -308t-173 -183t-216.5 -59q-129 0 -213 60t-114 140v-182h-207zM311 532q0 -186 85 -283t214 -97q127 0 209 95t82 285q0 188 -82 281.5t-209 93.5q-131 0 -215 -94t-84 -281z" />
<glyph unicode="c" horiz-adv-x="1075" d="M63 528q0 186 71 310.5t183.5 181.5t241.5 57q352 0 440 -327h-190q-29 76 -88 116.5t-160 40.5q-131 0 -212 -96t-81 -283q0 -184 81 -280t212 -96q103 0 163 43t91 124h189q-45 -180 -163 -258.5t-282 -78.5q-129 0 -241.5 57t-183.5 180t-71 309z" />
<glyph unicode="d" horiz-adv-x="1177" d="M63 532q0 182 68 305.5t173.5 181.5t215.5 58q121 0 202 -50t126 -136v543h207v-1434h-207v182q-33 -82 -116 -141t-212 -59q-111 0 -216 59t-173 183t-68 308zM268 532q0 -190 82 -285t207 -95q129 0 214 97t85 283t-84 280.5t-215 94.5q-127 0 -208 -93t-81 -282z" />
<glyph unicode="e" horiz-adv-x="1112" d="M63 528q0 182 73 306t186.5 183.5t242.5 59.5q133 0 243 -60.5t175.5 -187.5t65.5 -317v-51h-779q16 -154 101.5 -231.5t212.5 -77.5q164 0 239 108h199q-63 -145 -174 -211.5t-281 -66.5q-127 0 -241.5 58t-188.5 182t-74 306zM270 604h576q-14 152 -88 227.5t-193 75.5 q-116 0 -197 -77.5t-98 -225.5z" />
<glyph unicode="f" horiz-adv-x="702" d="M41 897v168h162v80q0 184 86 245.5t227 61.5q74 0 146 -16v-162q-55 8 -117 8q-74 0 -104.5 -31.5t-30.5 -109.5v-76h237v-168h-237v-897h-207v897h-162z" />
<glyph unicode="g" horiz-adv-x="1177" d="M63 532q0 182 68 305.5t173.5 181.5t215.5 58q231 0 328 -186v174h207v-1040v-15q-4 -260 -153.5 -360.5t-364.5 -100.5q-150 0 -264.5 58.5t-170.5 159.5l134 81q39 -57 114.5 -92t186.5 -35q158 0 234.5 70t76.5 234v157q-33 -74 -116 -130t-212 -56q-111 0 -216 57.5 t-173 178t-68 300.5zM268 532q0 -182 81 -271t208 -89q133 0 216 88t83 272q0 186 -84 277.5t-215 91.5q-127 0 -208 -90t-81 -279z" />
<glyph unicode="h" horiz-adv-x="1181" d="M115 0v1434h207v-603q16 47 63 103.5t125 98.5t178 42q176 0 277.5 -100.5t101.5 -327.5v-647h-207v637q0 260 -229 260q-86 0 -152.5 -41t-106.5 -99.5t-50 -109.5v-647h-207z" />
<glyph unicode="i" horiz-adv-x="434" d="M115 0v1065h207v-1065h-207zM115 1249v185h207v-185h-207z" />
<glyph unicode="j" horiz-adv-x="452" d="M-135 -197q18 -6 57 -20t68.5 -21.5t56.5 -7.5q49 0 72.5 43t23.5 109v1159h207v-1212q0 -156 -73.5 -230t-206.5 -74q-92 0 -205 52v202zM143 1245v189h207v-189h-207z" />
<glyph unicode="k" horiz-adv-x="1150" d="M115 0v354v1080h207v-865l475 496h247l-456 -471l520 -594h-244l-413 453l-129 -134v-319h-207z" />
<glyph unicode="l" horiz-adv-x="434" d="M115 0v1434h207v-1434h-207z" />
<glyph unicode="m" horiz-adv-x="1861" d="M115 0v1065h207v-234q16 47 60 103.5t117.5 98.5t170.5 42q125 0 215 -58.5t127 -187.5q39 94 139 170t231 76q166 0 266.5 -103.5t100.5 -334.5v-637h-207v631q0 137 -62.5 201.5t-160.5 64.5q-78 0 -143.5 -42t-103.5 -102.5t-38 -107.5v-645h-207v637q0 137 -61 198.5 t-160 61.5q-78 0 -139 -41t-98 -99.5t-47 -109.5v-647h-207z" />
<glyph unicode="n" horiz-adv-x="1181" d="M115 0v1065h207v-234q16 47 63 103.5t125 98.5t178 42q176 0 277.5 -100.5t101.5 -327.5v-647h-207v637q0 260 -229 260q-86 0 -152.5 -41t-106.5 -99.5t-50 -109.5v-647h-207z" />
<glyph unicode="o" d="M63 528q0 182 74 306t189.5 183.5t238.5 59.5t239 -59.5t189.5 -183t73.5 -306.5q0 -182 -73.5 -306t-189.5 -182t-239 -58t-238.5 58t-189.5 182t-74 306zM268 528q0 -186 85 -281t212 -95t212 95t85 281q0 189 -85 284t-212 95t-212 -95t-85 -284z" />
<glyph unicode="p" horiz-adv-x="1161" d="M115 -389v1454h207v-176q96 188 325 188q113 0 218.5 -59.5t174 -182t68.5 -303.5q0 -184 -68.5 -307t-174 -181t-218.5 -58q-129 0 -212 58t-113 138v-571h-207zM311 532q0 -186 83 -278t214 -92t213 91t82 279t-82 278.5t-213 90.5t-214 -91t-83 -278z" />
<glyph unicode="q" horiz-adv-x="1169" d="M63 532q0 180 68 303t173.5 182.5t217.5 59.5q232 0 328 -188v176h207v-1454h-207v571q-33 -80 -116 -138t-212 -58q-113 0 -218 58t-173 181t-68 307zM268 532q0 -188 81 -279t212 -91t214 92t83 278t-83 277.5t-214 91.5t-212 -90t-81 -279z" />
<glyph unicode="r" horiz-adv-x="790" d="M104 0v1065h207v-256q27 115 118 190.5t230 75.5q40 0 89 -6v-182q-31 2 -72 2q-303 0 -365 -289v-600h-207z" />
<glyph unicode="s" horiz-adv-x="1009" d="M53 307h191q20 -88 88.5 -127t167.5 -39q111 0 172 39t61 117q0 66 -37 96.5t-121 50.5l-182 41q-162 37 -234.5 105.5t-72.5 187.5q0 141 107.5 220t295.5 79q356 0 424 -297h-190q-27 78 -82 110t-147 32q-98 0 -148.5 -37t-50.5 -105q0 -61 33.5 -96t120.5 -55 l174 -39q115 -27 181 -56.5t104 -85t38 -151.5q0 -158 -123 -234.5t-323 -76.5q-193 0 -309.5 79.5t-137.5 241.5z" />
<glyph unicode="t" horiz-adv-x="686" d="M41 897v168h154v266h206v-266h205v-168h-205v-645q0 -45 21.5 -67.5t71.5 -22.5q53 0 131 14v-162q-64 -26 -178 -26h-9q-113 0 -178 57t-65 207v645h-154z" />
<glyph unicode="u" horiz-adv-x="1181" d="M115 418v647h207v-637q0 -258 229 -258q86 0 152.5 41t106.5 99.5t50 107.5v647h207v-1065h-207v233q-16 -47 -63 -103t-125 -98t-178 -42q-176 0 -277.5 100t-101.5 328z" />
<glyph unicode="v" horiz-adv-x="1155" d="M43 1065h209l326 -854l325 854h209l-420 -1065h-229z" />
<glyph unicode="w" horiz-adv-x="1650" d="M43 1065h209l219 -807l272 807h166l273 -807l219 807h209l-312 -1065h-184l-289 815l-286 -815h-185z" />
<glyph unicode="x" horiz-adv-x="1124" d="M55 0l391 549l-366 516h229l252 -354l254 354h229l-368 -516l393 -549h-229l-279 389l-276 -389h-230z" />
<glyph unicode="y" horiz-adv-x="1118" d="M43 1065h205l307 -834l315 834h207l-438 -1124q-51 -131 -120.5 -203t-152.5 -98.5t-196 -30.5v180q221 12 276 160l13 31z" />
<glyph unicode="z" horiz-adv-x="1030" d="M84 0v176l616 713h-596v176h842v-176l-616 -713h616v-176h-862z" />
<glyph unicode="{" horiz-adv-x="626" d="M92 627l92 149v555q0 100 57.5 147.5t135.5 47.5h158v-178h-72q-33 0 -52.5 -17.5t-19.5 -50.5v-514l-98 -139l98 -135v-512q0 -33 19.5 -50.5t52.5 -17.5h72v-178h-158q-78 0 -135.5 47t-57.5 147v553z" />
<glyph unicode="|" horiz-adv-x="485" d="M154 -389v2027h180v-2027h-180z" />
<glyph unicode="}" horiz-adv-x="626" d="M92 -86h72q33 0 52.5 17.5t19.5 48.5v512l98 135l-98 139v514q0 31 -19.5 48.5t-52.5 17.5h-72v180h158q78 0 135 -47t57 -148v-555l93 -149l-93 -146v-553q0 -100 -57 -147t-135 -47h-158v180z" />
<glyph unicode="~" horiz-adv-x="1001" d="M102 510q0 104 62.5 169.5t167.5 65.5q55 0 98 -21.5t98 -61.5q51 -39 89 -57.5t83 -18.5q49 0 78 25.5t27 58.5h94q0 -106 -62.5 -172t-166.5 -66q-53 0 -95.5 20.5t-101.5 63.5q-51 39 -89 57.5t-83 18.5q-47 0 -76.5 -24.5t-27.5 -57.5h-95z" />
<glyph unicode="&#xa1;" horiz-adv-x="440" d="M143 815v250h236v-250h-236zM150 -369v1014h221v-1014h-221z" />
<glyph unicode="&#xa2;" horiz-adv-x="1052" d="M63 672q0 246 124 379t309 153v230h122v-228q299 -25 381 -319h-190q-51 131 -191 151v-733q143 23 197 162h189q-79 -301 -386 -330v-219h-122v221q-117 12 -215.5 73.5t-158 177.5t-59.5 282zM268 672q0 -156 61.5 -249t166.5 -116v729q-104 -23 -166 -115t-62 -249z " />
<glyph unicode="&#xa3;" horiz-adv-x="1140" d="M92 598v121h125q-55 96 -81.5 159.5t-26.5 149.5q0 127 62 222.5t170 146.5t239 51q125 0 232.5 -53.5t172 -150.5t64.5 -224v-37h-207v37q0 111 -68.5 180.5t-193.5 69.5q-131 0 -198 -67.5t-67 -174.5q0 -63 22.5 -118.5t68.5 -139.5l28 -51h260v-121h-211 q12 -43 13 -92q0 -100 -48.5 -181t-144.5 -165q86 31 178 30q72 0 174 -18q12 -2 71.5 -10t117.5 -8q86 0 184 26v-180q-88 -23 -176 -23q-82 0 -225 25q-135 25 -203 25q-115 0 -219 -47l-103 133q193 188 193 379q0 51 -21 106h-182z" />
<glyph unicode="&#xa4;" horiz-adv-x="1179" d="M102 647l93 92q-66 102 -66 236q0 129 68 242l-95 92l136 133l88 -90q119 82 262 82q145 0 264 -84l90 92l135 -133l-96 -97q66 -111 66 -237q-1 -125 -64 -234l94 -94l-135 -131l-86 86q-123 -86 -268 -86q-147 0 -266 84l-84 -84zM301 975q0 -66 34 -132.5t99.5 -110.5 t153.5 -44t153.5 44t100.5 110.5t35 132.5t-35 132.5t-100.5 110.5t-153.5 44t-153.5 -44t-99.5 -111t-34 -132z" />
<glyph unicode="&#xa5;" horiz-adv-x="1394" d="M53 1434h250l385 -689l385 689h250l-518 -877h262v-135h-268v-98h268v-136h-268v-188h-221v188h-252v136h252v98h-252v135h245z" />
<glyph unicode="&#xa6;" horiz-adv-x="485" d="M154 184h180v-573h-180v573zM154 1065v573h180v-573h-180z" />
<glyph unicode="&#xa7;" horiz-adv-x="1333" d="M109 -43h227q20 -119 95 -183.5t235 -64.5q166 0 246.5 55.5t80.5 157.5q0 104 -62.5 159.5t-185.5 82.5l-200 43q-195 43 -297.5 134t-102.5 259q0 143 95 242q-74 90 -74 225q0 174 135 278.5t375 104.5q229 0 363.5 -99.5t156.5 -287.5h-225q-16 98 -86 146t-209 48 q-145 0 -213 -55t-68 -141q0 -78 48.5 -130t158.5 -75l201 -45q223 -47 331.5 -145.5t108.5 -276.5q0 -141 -86 -239q66 -90 66 -230q0 -193 -154 -298t-405 -105q-252 0 -393.5 115.5t-161.5 324.5zM375 594q0 -78 48 -130t159 -75l200 -45q119 -27 201 -63q31 47 31 108 q0 104 -62.5 159.5t-185.5 82.5l-201 43q-80 16 -143 43q-47 -49 -47 -123z" />
<glyph unicode="&#xa8;" horiz-adv-x="663" d="M0 1255v197h213v-197h-213zM451 1255v197h213v-197h-213z" />
<glyph unicode="&#xa9;" horiz-adv-x="1605" d="M72 717q0 207 98 373.5t265 261t368 94.5t367.5 -94.5t265 -261t98.5 -373.5t-98.5 -375t-265 -262t-367.5 -94t-368 94t-265 262t-98 375zM199 717q0 -174 80.5 -311.5t219 -215t304.5 -77.5t305 77.5t220 215t81 311.5q0 172 -81 310t-220 216t-305 78t-304.5 -78 t-219 -216t-80.5 -310zM397 717q0 131 56.5 227t149.5 146.5t200 50.5q123 0 222 -63.5t140 -203.5h-149q-49 131 -213 132q-113 0 -187.5 -76t-74.5 -213q0 -139 74.5 -215t187.5 -76q166 0 217 135h147q-39 -141 -139 -204.5t-225 -63.5q-106 0 -199.5 50t-150 146.5 t-56.5 227.5z" />
<glyph unicode="&#xaa;" horiz-adv-x="749" d="M63 985q0 98 60.5 141t185.5 54l195 14q0 76 -34 106.5t-114 30.5q-74 0 -118.5 -18.5t-75.5 -52.5l-80 77q94 119 274 119q162 0 229.5 -75.5t67.5 -237.5v-197q0 -49 10.5 -86t32.5 -80h-139q-6 8 -17.5 41t-17.5 68q-92 -113 -215 -113q-244 0 -244 209zM209 983 q0 -84 117 -84q131 0 178 119v72q-33 -4 -109 -13q-57 -4 -84 -8q-57 -4 -79.5 -24.5t-22.5 -61.5z" />
<glyph unicode="&#xab;" horiz-adv-x="864" d="M92 426v371l275 170v-164l-177 -191l177 -192v-164zM500 426v371l274 170v-164l-176 -191l176 -192v-164z" />
<glyph unicode="&#xac;" horiz-adv-x="1024" d="M92 475v164h842v-387h-207v223h-635z" />
<glyph unicode="&#xad;" horiz-adv-x="819" d="M92 496v147h711v-147h-711z" />
<glyph unicode="&#xae;" horiz-adv-x="1605" d="M72 717q0 207 98 373.5t265 261t368 94.5t367.5 -94.5t265 -261t98.5 -373.5t-98.5 -375t-265 -262t-367.5 -94t-368 94t-265 262t-98 375zM199 717q0 -174 80.5 -311.5t219 -215t304.5 -77.5t305 77.5t220 215t81 311.5q0 172 -81 310t-220 216t-305 78t-304.5 -78 t-219 -216t-80.5 -310zM520 309v815h305q268 0 269 -233q0 -152 -154 -203q82 -14 118 -55t36 -119v-65q-1 -111 24 -140h-129q-18 25 -18 146v53q0 74 -37 99.5t-100 25.5h-193v-324h-121zM641 735h180q74 0 114 39t40 117q0 61 -37 96t-113 35h-184v-287z" />
<glyph unicode="&#xaf;" horiz-adv-x="663" d="M0 1327v125h666v-125h-666z" />
<glyph unicode="&#xb0;" horiz-adv-x="788" d="M92 1174q0 80 41 148.5t110.5 109.5t151.5 41t150.5 -41t109.5 -110t41 -148q0 -82 -41 -152t-109.5 -111t-150.5 -41t-151.5 41t-110.5 111t-41 152zM248 1174q0 -55 39 -102.5t108 -47.5q68 0 107 47t39 103q0 53 -39 100t-107 47q-70 0 -108.5 -47t-38.5 -100z" />
<glyph unicode="&#xb1;" horiz-adv-x="1107" d="M92 612v181h365v366h192v-366h367v-181h-367v-366h-192v366h-365zM170 -28v147h768v-147h-768z" />
<glyph unicode="&#xb2;" horiz-adv-x="536" d="M112 901v17q0 82 32 138t118 107q10 6 46 27.5t50 43t14 52.5q0 35 -24.5 57.5t-61.5 22.5q-39 0 -63.5 -24.5t-24.5 -67.5v-14h-86v14q0 76 45 123t129 47t130 -44t46 -114q0 -61 -38.5 -101t-120.5 -89q-94 -53 -95 -111v-6h256v-78h-352z" />
<glyph unicode="&#xb3;" horiz-adv-x="559" d="M125 1067h86q2 -49 31.5 -73.5t79.5 -24.5q49 0 79.5 20.5t30.5 63.5q0 92 -125 92h-22v72h22q98 0 99 79q0 33 -25 52.5t-64 19.5q-90 0 -90 -92h-84q0 80 47.5 124t126.5 44q80 0 126.5 -41t46.5 -103q0 -45 -27 -74.5t-66 -39.5q45 -6 83 -40t38 -95q0 -68 -53 -113 t-145 -45q-90 0 -142.5 49t-52.5 125z" />
<glyph unicode="&#xb4;" horiz-adv-x="409" d="M0 1190h184l226 262h-293z" />
<glyph unicode="&#xb5;" horiz-adv-x="1161" d="M106 -389v1454h207h9v-637q0 -258 229 -258q86 0 152.5 41t106.5 99.5t50 107.5v647h207v-1065h-207v233q-16 -47 -63 -103t-125 -98t-178 -42q-102 0 -181 33v-412h-207z" />
<glyph unicode="&#xb6;" horiz-adv-x="1277" d="M61 1024q0 113 52.5 206t152 148.5t236.5 55.5h311h352v-1885h-170v1756h-182v-1756h-184v1067h-127q-137 0 -236.5 54.5t-152 147.5t-52.5 206z" />
<glyph unicode="&#xb7;" horiz-adv-x="440" d="M102 457v250h236v-250h-236z" />
<glyph unicode="&#xb8;" horiz-adv-x="360" d="M0 -154l96 156h178l-108 -117q78 4 136 -39t58 -122q0 -113 -93 -156t-255 -43v90q188 2 189 102q0 33 -21.5 52.5t-52.5 19.5q-35 0 -76 -25z" />
<glyph unicode="&#xb9;" horiz-adv-x="382" d="M64 1272v90q29 0 56.5 22.5t39.5 51.5h82v-535h-82v422q-14 -25 -39.5 -38t-56.5 -13z" />
<glyph unicode="&#xba;" horiz-adv-x="774" d="M63 1112q0 104 47.5 181t122 117t154.5 40t154.5 -40t122 -118t47.5 -180q0 -104 -47.5 -181t-122 -118t-154.5 -41t-154.5 41t-122 118t-47.5 181zM205 1114q0 -96 52 -151.5t130 -55.5t129 55.5t51 151.5q0 94 -52 148.5t-128 54.5q-78 0 -130 -54.5t-52 -148.5z" />
<glyph unicode="&#xbb;" horiz-adv-x="864" d="M92 256v164l176 192l-176 191v164l273 -170v-371zM498 256v164l176 192l-176 191v164l274 -170v-371z" />
<glyph unicode="&#xbc;" horiz-adv-x="1165" d="M94 0l895 1434h108l-893 -1434h-110zM127 1272v90q29 0 56.5 22.5t39.5 51.5h82v-535h-82v422q-14 -25 -39.5 -38t-56.5 -13zM748 135v68l242 332h82v-332h61v-68h-61v-135h-82v135h-242zM822 203h168v229z" />
<glyph unicode="&#xbd;" horiz-adv-x="1212" d="M109 0l895 1434h108l-893 -1434h-110zM125 1272v90q29 0 56.5 22.5t39.5 51.5h82v-535h-82v422q-14 -25 -39.5 -38t-56.5 -13zM770 0v16q0 82 32 138.5t118 107.5q10 6 46 27.5t50 43t14 52.5q0 37 -24.5 58.5t-61.5 21.5q-39 0 -63.5 -23.5t-24.5 -68.5v-15h-86v15 q0 76 45 123t129 47t130 -44t46 -114q0 -61 -38.5 -101t-120.5 -87q-94 -55 -95 -113v-6h256v-78h-352z" />
<glyph unicode="&#xbe;" horiz-adv-x="1267" d="M84 1067h86q2 -49 31.5 -73.5t79.5 -24.5q49 0 79.5 20.5t30.5 63.5q0 92 -125 92h-22v72h22q98 0 99 79q0 33 -25 52.5t-64 19.5q-90 0 -90 -92h-84q0 80 47.5 124t126.5 44q80 0 126.5 -41t46.5 -103q0 -45 -27 -74.5t-66 -39.5q45 -6 83 -40t38 -95q0 -68 -53 -113 t-145 -45q-90 0 -142.5 49t-52.5 125zM143 0l895 1434h108l-893 -1434h-110zM784 135v68l242 332h82v-332h61v-68h-61v-135h-82v135h-242zM858 203h168v229z" />
<glyph unicode="&#xbf;" horiz-adv-x="1099" d="M92 16q0 -188 125 -293.5t326 -105.5q209 0 338 119t127 352h-207q0 -139 -66.5 -215t-191.5 -76q-123 0 -183.5 58.5t-60.5 160.5q0 68 36 112t109 99q63 47 103.5 86t68 102.5t27.5 151.5v78h-221v-78q0 -61 -21.5 -106t-51.5 -76t-83 -72q-57 -43 -92 -77.5t-58.5 -89 t-23.5 -130.5zM412 815v250h235v-250h-235z" />
<glyph unicode="&#xc0;" horiz-adv-x="1454" d="M53 0l582 1434h184l582 -1434h-240l-125 330h-618l-125 -330h-240zM418 1821l225 -262h185l-117 262h-293zM481 496h492l-246 645z" />
<glyph unicode="&#xc1;" horiz-adv-x="1454" d="M53 0l582 1434h184l582 -1434h-240l-125 330h-618l-125 -330h-240zM481 496h492l-246 645zM633 1559h184l226 262h-293z" />
<glyph unicode="&#xc2;" horiz-adv-x="1454" d="M53 0l582 1434h184l582 -1434h-240l-125 330h-618l-125 -330h-240zM371 1549l170 272h371l170 -272h-164l-191 174l-192 -174h-164zM481 496h492l-246 645z" />
<glyph unicode="&#xc3;" horiz-adv-x="1454" d="M53 0l582 1434h184l582 -1434h-240l-125 330h-618l-125 -330h-240zM348 1651q0 100 60.5 162.5t158.5 62.5q51 0 91 -19.5t98 -60.5q53 -37 86.5 -55t76.5 -18q45 0 73 24.5t26 55.5h92q0 -100 -60.5 -163t-158.5 -63q-51 0 -92 20.5t-99 59.5q-47 35 -83 53.5t-79 18.5 q-45 0 -73.5 -23.5t-26.5 -54.5h-90zM481 496h492l-246 645z" />
<glyph unicode="&#xc4;" horiz-adv-x="1454" d="M53 0l582 1434h184l582 -1434h-240l-125 330h-618l-125 -330h-240zM395 1624v197h213v-197h-213zM481 496h492l-246 645zM846 1624v197h213v-197h-213z" />
<glyph unicode="&#xc5;" horiz-adv-x="1454" d="M53 0l582 1434h184l582 -1434h-240l-125 330h-618l-125 -330h-240zM481 496h492l-246 645zM541 1741q0 78 54.5 131t133.5 53q74 0 128.5 -54t54.5 -130t-54.5 -129t-128.5 -53q-79 0 -133.5 53t-54.5 129zM639 1741q0 -37 24.5 -61.5t61.5 -24.5t62.5 24.5t25.5 61.5 q0 39 -25.5 63.5t-62.5 24.5t-61.5 -24.5t-24.5 -63.5z" />
<glyph unicode="&#xc6;" horiz-adv-x="2052" d="M53 0l981 1434h223h701v-197h-701v-410h578v-186h-578v-444h721v-197h-942v422h-461l-288 -422h-234zM694 596h342v500z" />
<glyph unicode="&#xc7;" horiz-adv-x="1339" d="M74 717q0 360 171 546.5t460 186.5q221 0 371.5 -104.5t185.5 -298.5h-215q-41 106 -121 156t-217 50q-195 0 -301.5 -133t-106.5 -403t106.5 -403.5t301.5 -133.5q139 0 220 50.5t122 158.5h215q-33 -188 -173.5 -291.5t-351.5 -113.5l-94 -99q80 4 138.5 -40t58.5 -121 q0 -113 -93.5 -156t-254.5 -43v90q188 2 188 102q0 33 -21.5 52.5t-52.5 19.5q-35 0 -75 -25l-52 82l92 148q-236 39 -368.5 222t-132.5 501z" />
<glyph unicode="&#xc8;" d="M115 0v1434h921v-197h-700v-410h577v-186h-577v-444h721v-197h-942zM289 1821l225 -262h185l-117 262h-293z" />
<glyph unicode="&#xc9;" d="M115 0v1434h921v-197h-700v-410h577v-186h-577v-444h721v-197h-942zM506 1559h184l226 262h-293z" />
<glyph unicode="&#xca;" d="M115 0v1434h921v-197h-700v-410h577v-186h-577v-444h721v-197h-942zM242 1549l170 272h371l170 -272h-164l-191 174l-192 -174h-164z" />
<glyph unicode="&#xcb;" d="M115 0v1434h921v-197h-700v-410h577v-186h-577v-444h721v-197h-942zM266 1624v197h213v-197h-213zM717 1624v197h213v-197h-213z" />
<glyph unicode="&#xcc;" horiz-adv-x="450" d="M-86 1821l225 -262h185l-117 262h-293zM115 0v1434h221v-1434h-221z" />
<glyph unicode="&#xcd;" horiz-adv-x="450" d="M115 0v1434h221v-1434h-221zM131 1559h184l226 262h-293z" />
<glyph unicode="&#xce;" horiz-adv-x="450" d="M-131 1549l170 272h371l170 -272h-164l-191 174l-192 -174h-164zM115 0v1434h221v-1434h-221z" />
<glyph unicode="&#xcf;" horiz-adv-x="450" d="M-106 1624v197h213v-197h-213zM115 0v1434h221v-1434h-221zM345 1624v197h213v-197h-213z" />
<glyph unicode="&#xd0;" horiz-adv-x="1495" d="M115 635v147h116v652h492q330 0 504 -186.5t174 -530.5t-174 -530.5t-504 -186.5h-492v635h-116zM453 197h252q243 0 353.5 126t110.5 394t-110.5 394t-353.5 126h-252v-455h372v-147h-372v-438z" />
<glyph unicode="&#xd1;" horiz-adv-x="1347" d="M115 0v1434h219l678 -1063v1063h221v-1434h-227l-670 1063v-1063h-221zM297 1651q0 100 60.5 162.5t158.5 62.5q51 0 91 -19.5t98 -60.5q53 -37 86.5 -55t76.5 -18q45 0 73 24.5t26 55.5h92q0 -100 -60.5 -163t-158.5 -63q-51 0 -92 20.5t-99 59.5q-47 35 -83 53.5 t-79 18.5q-45 0 -73.5 -23.5t-26.5 -54.5h-90z" />
<glyph unicode="&#xd2;" horiz-adv-x="1419" d="M74 717q0 360 171 546.5t466 186.5t466 -186.5t171 -546.5t-171 -546.5t-466 -186.5t-466 186t-171 547zM301 717q0 -270 106.5 -403.5t303.5 -133.5q194 0 300.5 133t106.5 404q0 270 -106.5 403t-300.5 133q-197 0 -303.5 -133t-106.5 -403zM399 1821l225 -262h185 l-117 262h-293z" />
<glyph unicode="&#xd3;" horiz-adv-x="1419" d="M74 717q0 360 171 546.5t466 186.5t466 -186.5t171 -546.5t-171 -546.5t-466 -186.5t-466 186t-171 547zM301 717q0 -270 106.5 -403.5t303.5 -133.5q194 0 300.5 133t106.5 404q0 270 -106.5 403t-300.5 133q-197 0 -303.5 -133t-106.5 -403zM616 1559h184l226 262h-293 z" />
<glyph unicode="&#xd4;" horiz-adv-x="1419" d="M74 717q0 360 171 546.5t466 186.5t466 -186.5t171 -546.5t-171 -546.5t-466 -186.5t-466 186t-171 547zM301 717q0 -270 106.5 -403.5t303.5 -133.5q194 0 300.5 133t106.5 404q0 270 -106.5 403t-300.5 133q-197 0 -303.5 -133t-106.5 -403zM354 1549l170 272h371 l170 -272h-164l-191 174l-192 -174h-164z" />
<glyph unicode="&#xd5;" horiz-adv-x="1419" d="M74 717q0 360 171 546.5t466 186.5t466 -186.5t171 -546.5t-171 -546.5t-466 -186.5t-466 186t-171 547zM301 717q0 -270 106.5 -403.5t303.5 -133.5q194 0 300.5 133t106.5 404q0 270 -106.5 403t-300.5 133q-197 0 -303.5 -133t-106.5 -403zM332 1651q0 100 60.5 162.5 t158.5 62.5q51 0 91 -19.5t98 -60.5q53 -37 86.5 -55t76.5 -18q45 0 73 24.5t26 55.5h92q0 -100 -60.5 -163t-158.5 -63q-51 0 -92 20.5t-99 59.5q-47 35 -83 53.5t-79 18.5q-45 0 -73.5 -23.5t-26.5 -54.5h-90z" />
<glyph unicode="&#xd6;" horiz-adv-x="1419" d="M74 717q0 360 171 546.5t466 186.5t466 -186.5t171 -546.5t-171 -546.5t-466 -186.5t-466 186t-171 547zM301 717q0 -270 106.5 -403.5t303.5 -133.5q194 0 300.5 133t106.5 404q0 270 -106.5 403t-300.5 133q-197 0 -303.5 -133t-106.5 -403zM377 1624v197h213v-197 h-213zM828 1624v197h213v-197h-213z" />
<glyph unicode="&#xd7;" horiz-adv-x="966" d="M92 274l258 258l-258 259l129 129l258 -258l258 258l135 -136l-258 -258l260 -260l-129 -129l-260 260l-258 -260z" />
<glyph unicode="&#xd8;" horiz-adv-x="1419" d="M74 717q0 360 171 546.5t466 186.5q123 0 223 -33l51 109h227l-96 -205q113 -92 172.5 -242.5t59.5 -361.5q0 -360 -171 -546.5t-466 -186.5q-121 0 -219 30l-58 -116h-227l100 213q-113 90 -173 241.5t-60 364.5zM301 717q1 -267 107 -402l438 918q-59 20 -135 20 q-197 0 -303.5 -133t-106.5 -403zM580 199q57 -18 131 -19q194 0 300.5 133t106.5 404q0 260 -102 397z" />
<glyph unicode="&#xd9;" horiz-adv-x="1347" d="M115 541v893h221v-871q0 -190 88 -285.5t250 -95.5t250 95.5t88 285.5v871h221v-893q0 -170 -70.5 -296t-197.5 -192.5t-291 -66.5q-166 0 -292 66.5t-196.5 191.5t-70.5 297zM352 1821l225 -262h185l-117 262h-293z" />
<glyph unicode="&#xda;" horiz-adv-x="1347" d="M115 541v893h221v-871q0 -190 88 -285.5t250 -95.5t250 95.5t88 285.5v871h221v-893q0 -170 -70.5 -296t-197.5 -192.5t-291 -66.5q-166 0 -292 66.5t-196.5 191.5t-70.5 297zM567 1559h184l226 262h-293z" />
<glyph unicode="&#xdb;" horiz-adv-x="1347" d="M115 541v893h221v-871q0 -190 88 -285.5t250 -95.5t250 95.5t88 285.5v871h221v-893q0 -170 -70.5 -296t-197.5 -192.5t-291 -66.5q-166 0 -292 66.5t-196.5 191.5t-70.5 297zM305 1549l170 272h371l170 -272h-164l-191 174l-192 -174h-164z" />
<glyph unicode="&#xdc;" horiz-adv-x="1347" d="M115 541v893h221v-871q0 -190 88 -285.5t250 -95.5t250 95.5t88 285.5v871h221v-893q0 -170 -70.5 -296t-197.5 -192.5t-291 -66.5q-166 0 -292 66.5t-196.5 191.5t-70.5 297zM330 1624v197h213v-197h-213zM781 1624v197h213v-197h-213z" />
<glyph unicode="&#xdd;" horiz-adv-x="1376" d="M53 1434h250l385 -689l385 689h250l-524 -887v-547h-221v547zM594 1559h184l226 262h-293z" />
<glyph unicode="&#xde;" horiz-adv-x="1259" d="M115 0v1434h207v-277h315q166 0 291 -55t192.5 -153.5t67.5 -227.5q0 -207 -147.5 -321.5t-403.5 -114.5h-315v-285h-207zM322 465h319q168 0 254 51t86 205q0 141 -90 199.5t-250 58.5h-319v-514z" />
<glyph unicode="&#xdf;" horiz-adv-x="1230" d="M115 0v1004q0 211 122.5 320.5t340.5 109.5q215 0 348 -96.5t133 -278.5q0 -109 -61.5 -181.5t-155.5 -91.5q133 -22 220 -121.5t87 -236.5q0 -219 -137.5 -323.5t-413.5 -104.5h-106v180h110q162 0 251 57.5t89 190.5q0 131 -97 194.5t-259 63.5h-94v178h94 q145 0 205.5 44t60.5 151q0 106 -68.5 151t-195.5 45q-139 0 -202.5 -60t-63.5 -191v-1004h-207z" />
<glyph unicode="&#xe0;" horiz-adv-x="1126" d="M63 295q0 274 371 323l58 7q117 14 184 27.5t108 35.5v19q0 121 -57 164.5t-174 43.5q-102 0 -159.5 -31.5t-69.5 -99.5h-197q14 143 124.5 218t301.5 75q229 0 333.5 -97t104.5 -323v-430q0 -45 19.5 -65.5t62.5 -18.5v-139q-35 -14 -84 -14q-86 0 -136 39t-50 121v49 q-35 -72 -125 -144.5t-250 -72.5t-262.5 79.5t-102.5 233.5zM246 1452l225 -262h185l-117 262h-293zM272 307q0 -74 48.5 -120t138.5 -46q131 0 211 63.5t114 129.5v211q-39 -18 -94 -29.5t-186 -32.5l-58 -8q-92 -14 -133 -55t-41 -113z" />
<glyph unicode="&#xe1;" horiz-adv-x="1126" d="M63 295q0 274 371 323l58 7q117 14 184 27.5t108 35.5v19q0 121 -57 164.5t-174 43.5q-102 0 -159.5 -31.5t-69.5 -99.5h-197q14 143 124.5 218t301.5 75q229 0 333.5 -97t104.5 -323v-430q0 -45 19.5 -65.5t62.5 -18.5v-139q-35 -14 -84 -14q-86 0 -136 39t-50 121v49 q-35 -72 -125 -144.5t-250 -72.5t-262.5 79.5t-102.5 233.5zM272 307q0 -74 48.5 -120t138.5 -46q131 0 211 63.5t114 129.5v211q-39 -18 -94 -29.5t-186 -32.5l-58 -8q-92 -14 -133 -55t-41 -113zM461 1190h184l226 262h-293z" />
<glyph unicode="&#xe2;" horiz-adv-x="1126" d="M63 295q0 274 371 323l58 7q117 14 184 27.5t108 35.5v19q0 121 -57 164.5t-174 43.5q-102 0 -159.5 -31.5t-69.5 -99.5h-197q14 143 124.5 218t301.5 75q229 0 333.5 -97t104.5 -323v-430q0 -45 19.5 -65.5t62.5 -18.5v-139q-35 -14 -84 -14q-86 0 -136 39t-50 121v49 q-35 -72 -125 -144.5t-250 -72.5t-262.5 79.5t-102.5 233.5zM199 1180l170 272h371l170 -272h-164l-191 174l-192 -174h-164zM272 307q0 -74 48.5 -120t138.5 -46q131 0 211 63.5t114 129.5v211q-39 -18 -94 -29.5t-186 -32.5l-58 -8q-92 -14 -133 -55t-41 -113z" />
<glyph unicode="&#xe3;" horiz-adv-x="1126" d="M63 295q0 274 371 323l58 7q117 14 184 27.5t108 35.5v19q0 121 -57 164.5t-174 43.5q-102 0 -159.5 -31.5t-69.5 -99.5h-197q14 143 124.5 218t301.5 75q229 0 333.5 -97t104.5 -323v-430q0 -45 19.5 -65.5t62.5 -18.5v-139q-35 -14 -84 -14q-86 0 -136 39t-50 121v49 q-35 -72 -125 -144.5t-250 -72.5t-262.5 79.5t-102.5 233.5zM176 1282q0 100 60.5 162.5t158.5 62.5q51 0 91 -19.5t98 -60.5q53 -37 86.5 -55t76.5 -18q45 0 73 24.5t26 55.5h92q0 -100 -60.5 -163t-158.5 -63q-51 0 -92 20.5t-99 59.5q-47 35 -83 53.5t-79 18.5 q-45 0 -73.5 -23.5t-26.5 -54.5h-90zM272 307q0 -74 48.5 -120t138.5 -46q131 0 211 63.5t114 129.5v211q-39 -18 -94 -29.5t-186 -32.5l-58 -8q-92 -14 -133 -55t-41 -113z" />
<glyph unicode="&#xe4;" horiz-adv-x="1126" d="M63 295q0 274 371 323l58 7q117 14 184 27.5t108 35.5v19q0 121 -57 164.5t-174 43.5q-102 0 -159.5 -31.5t-69.5 -99.5h-197q14 143 124.5 218t301.5 75q229 0 333.5 -97t104.5 -323v-430q0 -45 19.5 -65.5t62.5 -18.5v-139q-35 -14 -84 -14q-86 0 -136 39t-50 121v49 q-35 -72 -125 -144.5t-250 -72.5t-262.5 79.5t-102.5 233.5zM223 1255v197h213v-197h-213zM272 307q0 -74 48.5 -120t138.5 -46q131 0 211 63.5t114 129.5v211q-39 -18 -94 -29.5t-186 -32.5l-58 -8q-92 -14 -133 -55t-41 -113zM674 1255v197h213v-197h-213z" />
<glyph unicode="&#xe5;" horiz-adv-x="1126" d="M63 295q0 274 371 323l58 7q117 14 184 27.5t108 35.5v19q0 121 -57 164.5t-174 43.5q-102 0 -159.5 -31.5t-69.5 -99.5h-197q14 143 124.5 218t301.5 75q229 0 333.5 -97t104.5 -323v-430q0 -45 19.5 -65.5t62.5 -18.5v-139q-35 -14 -84 -14q-86 0 -136 39t-50 121v49 q-35 -72 -125 -144.5t-250 -72.5t-262.5 79.5t-102.5 233.5zM272 307q0 -74 48.5 -120t138.5 -46q131 0 211 63.5t114 129.5v211q-39 -18 -94 -29.5t-186 -32.5l-58 -8q-92 -14 -133 -55t-41 -113zM369 1372q0 78 54.5 131t133.5 53q74 0 128.5 -54t54.5 -130t-54.5 -129 t-128.5 -53q-79 0 -133.5 53t-54.5 129zM467 1372q0 -37 24.5 -61.5t61.5 -24.5t62.5 24.5t25.5 61.5q0 39 -25.5 63.5t-62.5 24.5t-61.5 -24.5t-24.5 -63.5z" />
<glyph unicode="&#xe6;" horiz-adv-x="1832" d="M63 295q0 274 371 323q41 4 62 9q109 12 178 25.5t110 35.5q-4 133 -62 180t-173 47q-102 0 -156.5 -30.5t-68.5 -100.5h-197q14 143 124.5 218t299.5 75q139 0 230 -35.5t141 -117.5q72 78 167 115.5t197 37.5q133 0 242.5 -60.5t175 -187.5t65.5 -317v-51h-778 q16 -156 101.5 -232.5t212.5 -76.5q164 0 239 108h199q-63 -147 -175 -212.5t-282 -65.5q-133 0 -253 64.5t-185 193.5q-154 -258 -420 -258q-160 0 -262.5 79.5t-102.5 233.5zM272 307q0 -74 48.5 -120t138.5 -46q131 0 212 63.5t113 131.5v209q-39 -18 -94 -29.5 t-186 -32.5l-58 -8q-92 -14 -133 -55t-41 -113zM991 604h576q-14 152 -88 227.5t-193 75.5q-117 0 -197.5 -77.5t-97.5 -225.5z" />
<glyph unicode="&#xe7;" horiz-adv-x="1075" d="M63 528q0 186 71 310.5t183.5 181.5t241.5 57q352 0 440 -327h-190q-29 76 -88 116.5t-160 40.5q-131 0 -212 -96t-81 -283q0 -184 81 -280t212 -96q102 0 162.5 43t91.5 124h189q-41 -159 -138.5 -239t-234.5 -94l-94 -101q80 4 138 -40t58 -121q0 -113 -93 -156 t-255 -43v90q188 2 188 102q0 33 -21.5 52.5t-51.5 19.5q-35 0 -76 -25l-51 82l88 144q-170 31 -284 166t-114 372z" />
<glyph unicode="&#xe8;" horiz-adv-x="1112" d="M63 528q0 182 73 306t186.5 183.5t242.5 59.5q133 0 243 -60.5t175.5 -187.5t65.5 -317v-51h-779q16 -154 101.5 -231.5t212.5 -77.5q164 0 239 108h199q-63 -145 -174 -211.5t-281 -66.5q-127 0 -241.5 58t-188.5 182t-74 306zM254 1452l225 -262h185l-117 262h-293z M270 604h576q-14 152 -88 227.5t-193 75.5q-116 0 -197 -77.5t-98 -225.5z" />
<glyph unicode="&#xe9;" horiz-adv-x="1112" d="M63 528q0 182 73 306t186.5 183.5t242.5 59.5q133 0 243 -60.5t175.5 -187.5t65.5 -317v-51h-779q16 -154 101.5 -231.5t212.5 -77.5q164 0 239 108h199q-63 -145 -174 -211.5t-281 -66.5q-127 0 -241.5 58t-188.5 182t-74 306zM270 604h576q-14 152 -88 227.5t-193 75.5 q-116 0 -197 -77.5t-98 -225.5zM469 1190h184l226 262h-293z" />
<glyph unicode="&#xea;" horiz-adv-x="1112" d="M63 528q0 182 73 306t186.5 183.5t242.5 59.5q133 0 243 -60.5t175.5 -187.5t65.5 -317v-51h-779q16 -154 101.5 -231.5t212.5 -77.5q164 0 239 108h199q-63 -145 -174 -211.5t-281 -66.5q-127 0 -241.5 58t-188.5 182t-74 306zM207 1180l170 272h371l170 -272h-164 l-191 174l-192 -174h-164zM270 604h576q-14 152 -88 227.5t-193 75.5q-116 0 -197 -77.5t-98 -225.5z" />
<glyph unicode="&#xeb;" horiz-adv-x="1112" d="M63 528q0 182 73 306t186.5 183.5t242.5 59.5q133 0 243 -60.5t175.5 -187.5t65.5 -317v-51h-779q16 -154 101.5 -231.5t212.5 -77.5q164 0 239 108h199q-63 -145 -174 -211.5t-281 -66.5q-127 0 -241.5 58t-188.5 182t-74 306zM231 1255v197h213v-197h-213zM270 604h576 q-14 152 -88 227.5t-193 75.5q-116 0 -197 -77.5t-98 -225.5zM682 1255v197h213v-197h-213z" />
<glyph unicode="&#xec;" horiz-adv-x="434" d="M-92 1452l225 -262h185l-117 262h-293zM115 0v1065h207v-1065h-207z" />
<glyph unicode="&#xed;" horiz-adv-x="434" d="M115 0v1065h207v-1065h-207zM125 1190h184l226 262h-293z" />
<glyph unicode="&#xee;" horiz-adv-x="434" d="M-139 1180l170 272h371l170 -272h-164l-191 174l-192 -174h-164zM115 0v1065h207v-1065h-207z" />
<glyph unicode="&#xef;" horiz-adv-x="434" d="M-115 1255v197h213v-197h-213zM115 0v1065h207v-1065h-207zM336 1255v197h213v-197h-213z" />
<glyph unicode="&#xf0;" horiz-adv-x="1198" d="M63 516q0 264 133.5 406.5t362.5 142.5q59 0 111.5 -13.5t83.5 -41.5q-70 106 -109 159l-213 -26v117l133 16q-66 84 -127 158h221l107 -134l188 25v-119l-104 -12q119 -162 172 -321.5t53 -346.5q0 -176 -68.5 -300t-186.5 -185t-261 -61q-133 0 -245.5 61t-181.5 182 t-69 293zM270 516q0 -176 83 -266t206 -90q131 0 220 90t89 266q0 190 -81.5 279.5t-227.5 89.5q-133 0 -211 -89t-78 -280z" />
<glyph unicode="&#xf1;" horiz-adv-x="1181" d="M115 0v1065h207v-234q16 47 63 103.5t125 98.5t178 42q176 0 277.5 -100.5t101.5 -327.5v-647h-207v637q0 260 -229 260q-86 0 -152.5 -41t-106.5 -99.5t-50 -109.5v-647h-207zM213 1282q0 100 60.5 162.5t158.5 62.5q51 0 91 -19.5t98 -60.5q53 -37 86.5 -55t76.5 -18 q45 0 73 24.5t26 55.5h92q0 -100 -60.5 -163t-158.5 -63q-51 0 -92 20.5t-99 59.5q-47 35 -83 53.5t-79 18.5q-45 0 -73.5 -23.5t-26.5 -54.5h-90z" />
<glyph unicode="&#xf2;" d="M63 528q0 182 74 306t189.5 183.5t238.5 59.5t239 -59.5t189.5 -183t73.5 -306.5q0 -182 -73.5 -306t-189.5 -182t-239 -58t-238.5 58t-189.5 182t-74 306zM256 1452l225 -262h185l-117 262h-293zM268 528q0 -186 85 -281t212 -95t212 95t85 281q0 189 -85 284t-212 95 t-212 -95t-85 -284z" />
<glyph unicode="&#xf3;" d="M63 528q0 182 74 306t189.5 183.5t238.5 59.5t239 -59.5t189.5 -183t73.5 -306.5q0 -182 -73.5 -306t-189.5 -182t-239 -58t-238.5 58t-189.5 182t-74 306zM268 528q0 -186 85 -281t212 -95t212 95t85 281q0 189 -85 284t-212 95t-212 -95t-85 -284zM471 1190h184 l226 262h-293z" />
<glyph unicode="&#xf4;" d="M63 528q0 182 74 306t189.5 183.5t238.5 59.5t239 -59.5t189.5 -183t73.5 -306.5q0 -182 -73.5 -306t-189.5 -182t-239 -58t-238.5 58t-189.5 182t-74 306zM209 1180l170 272h371l170 -272h-164l-191 174l-192 -174h-164zM268 528q0 -186 85 -281t212 -95t212 95t85 281 q0 189 -85 284t-212 95t-212 -95t-85 -284z" />
<glyph unicode="&#xf5;" d="M63 528q0 182 74 306t189.5 183.5t238.5 59.5t239 -59.5t189.5 -183t73.5 -306.5q0 -182 -73.5 -306t-189.5 -182t-239 -58t-238.5 58t-189.5 182t-74 306zM186 1282q0 100 60.5 162.5t158.5 62.5q51 0 91 -19.5t98 -60.5q53 -37 86.5 -55t76.5 -18q45 0 73 24.5t26 55.5 h92q0 -100 -60.5 -163t-158.5 -63q-51 0 -92 20.5t-99 59.5q-47 35 -83 53.5t-79 18.5q-45 0 -73.5 -23.5t-26.5 -54.5h-90zM268 528q0 -186 85 -281t212 -95t212 95t85 281q0 189 -85 284t-212 95t-212 -95t-85 -284z" />
<glyph unicode="&#xf6;" d="M63 528q0 182 74 306t189.5 183.5t238.5 59.5t239 -59.5t189.5 -183t73.5 -306.5q0 -182 -73.5 -306t-189.5 -182t-239 -58t-238.5 58t-189.5 182t-74 306zM233 1255v197h213v-197h-213zM268 528q0 -186 85 -281t212 -95t212 95t85 281q0 189 -85 284t-212 95t-212 -95 t-85 -284zM684 1255v197h213v-197h-213z" />
<glyph unicode="&#xf7;" horiz-adv-x="954" d="M92 496v147h770v-147h-770zM383 240q0 39 28.5 66.5t67.5 27.5t66.5 -27.5t27.5 -66.5t-27.5 -68t-66.5 -29t-67.5 29t-28.5 68zM383 903q0 39 28.5 66.5t67.5 27.5t66.5 -27.5t27.5 -66.5t-27.5 -67.5t-66.5 -28.5t-67.5 28.5t-28.5 67.5z" />
<glyph unicode="&#xf8;" d="M63 528q0 182 74 306t189.5 183.5t238.5 59.5q74 0 144 -20l59 127h211l-102 -215q88 -68 139 -178.5t51 -262.5q0 -182 -73.5 -306t-189.5 -182t-239 -58q-72 0 -151 22l-52 -106h-210l94 196q-84 70 -133.5 178.5t-49.5 255.5zM268 528q0 -160 66 -254l299 625 q-31 8 -68 8q-127 0 -212 -95t-85 -284zM489 162q31 -10 76 -10q127 0 212 95t85 281q0 164 -69 265z" />
<glyph unicode="&#xf9;" horiz-adv-x="1181" d="M115 418v647h207v-637q0 -258 229 -258q86 0 152.5 41t106.5 99.5t50 107.5v647h207v-1065h-207v233q-16 -47 -63 -103t-125 -98t-178 -42q-176 0 -277.5 100t-101.5 328zM279 1452l225 -262h185l-117 262h-293z" />
<glyph unicode="&#xfa;" horiz-adv-x="1181" d="M115 418v647h207v-637q0 -258 229 -258q86 0 152.5 41t106.5 99.5t50 107.5v647h207v-1065h-207v233q-16 -47 -63 -103t-125 -98t-178 -42q-176 0 -277.5 100t-101.5 328zM496 1190h184l226 262h-293z" />
<glyph unicode="&#xfb;" horiz-adv-x="1181" d="M115 418v647h207v-637q0 -258 229 -258q86 0 152.5 41t106.5 99.5t50 107.5v647h207v-1065h-207v233q-16 -47 -63 -103t-125 -98t-178 -42q-176 0 -277.5 100t-101.5 328zM231 1180l170 272h371l170 -272h-164l-191 174l-192 -174h-164z" />
<glyph unicode="&#xfc;" horiz-adv-x="1181" d="M115 418v647h207v-637q0 -258 229 -258q86 0 152.5 41t106.5 99.5t50 107.5v647h207v-1065h-207v233q-16 -47 -63 -103t-125 -98t-178 -42q-176 0 -277.5 100t-101.5 328zM256 1255v197h213v-197h-213zM707 1255v197h213v-197h-213z" />
<glyph unicode="&#xfd;" horiz-adv-x="1118" d="M43 1065h205l307 -834l315 834h207l-438 -1124q-51 -131 -120.5 -203t-152.5 -98.5t-196 -30.5v180q221 12 276 160l13 31zM467 1190h184l226 262h-293z" />
<glyph unicode="&#xfe;" horiz-adv-x="1161" d="M115 -389v1454v369h207v-543q20 43 55 80q100 106 270 106h2q55 0 117 -16q145 -43 243.5 -176t98.5 -353q0 -239 -125 -389q-66 -80 -154 -120.5t-180 -40.5q-129 0 -213 60t-114 140v-571h-207zM311 532q0 -114 35 -200q37 -86 105.5 -128t156.5 -42q168 0 244 137 q49 92 49 233q0 164 -65 259q-76 111 -228 110q-109 0 -187.5 -64.5t-101.5 -197.5q-8 -66 -8 -107z" />
<glyph unicode="&#xff;" horiz-adv-x="1118" d="M43 1065h205l307 -834l315 834h207l-438 -1124q-51 -131 -120.5 -203t-152.5 -98.5t-196 -30.5v180q221 12 276 160l13 31zM229 1255v197h213v-197h-213zM680 1255v197h213v-197h-213z" />
<glyph unicode="&#x152;" horiz-adv-x="2140" d="M74 717q0 360 171 546.5t466 186.5q252 0 413 -137v121h922v-197h-700v-410h577v-186h-577v-444h720v-197h-942v121q-162 -137 -413 -137q-295 0 -466 186t-171 547zM301 717q0 -270 106.5 -403.5t303.5 -133.5q194 0 300.5 133t106.5 404q0 270 -106.5 403t-300.5 133 q-197 0 -303.5 -133t-106.5 -403z" />
<glyph unicode="&#x153;" horiz-adv-x="1910" d="M63 528q0 182 74 306t189.5 183.5t238.5 59.5q113 0 220.5 -50t177.5 -146q72 98 178 147t223 49q135 0 244.5 -60.5t175 -187.5t65.5 -317v-51h-780q16 -156 101 -232.5t214 -76.5q162 0 240 108h199q-63 -147 -175 -212.5t-282 -65.5q-115 0 -223.5 50t-177.5 146 q-72 -96 -179.5 -146t-220.5 -50q-123 0 -238.5 58t-189.5 182t-74 306zM268 528q0 -186 85 -281t212 -95q125 0 209 91t88 271v14v17q-4 180 -88 271t-209 91q-127 0 -212 -95t-85 -284zM1069 604h576q-14 152 -88 227.5t-193 75.5q-117 0 -197 -77.5t-98 -225.5z" />
<glyph unicode="&#x178;" horiz-adv-x="1376" d="M53 1434h250l385 -689l385 689h250l-524 -887v-547h-221v547zM356 1624v197h213v-197h-213zM807 1624v197h213v-197h-213z" />
<glyph unicode="&#x2c6;" horiz-adv-x="710" d="M0 1180l170 272h371l170 -272h-164l-191 174l-192 -174h-164z" />
<glyph unicode="&#x2dc;" horiz-adv-x="761" d="M0 1282q0 100 60.5 162.5t158.5 62.5q51 0 91 -19.5t98 -60.5q53 -37 86.5 -55t76.5 -18q45 0 73 24.5t26 55.5h92q0 -100 -60.5 -163t-158.5 -63q-51 0 -92 20.5t-99 59.5q-47 35 -83 53.5t-79 18.5q-45 0 -73.5 -23.5t-26.5 -54.5h-90z" />
<glyph unicode="&#x2000;" horiz-adv-x="962" />
<glyph unicode="&#x2001;" horiz-adv-x="1925" />
<glyph unicode="&#x2002;" horiz-adv-x="962" />
<glyph unicode="&#x2003;" horiz-adv-x="1925" />
<glyph unicode="&#x2004;" horiz-adv-x="641" />
<glyph unicode="&#x2005;" horiz-adv-x="481" />
<glyph unicode="&#x2006;" horiz-adv-x="320" />
<glyph unicode="&#x2007;" horiz-adv-x="320" />
<glyph unicode="&#x2008;" horiz-adv-x="240" />
<glyph unicode="&#x2009;" horiz-adv-x="385" />
<glyph unicode="&#x200a;" horiz-adv-x="106" />
<glyph unicode="&#x2010;" horiz-adv-x="894" d="M92 496v147h711v-147h-711z" />
<glyph unicode="&#x2011;" horiz-adv-x="894" d="M92 496v147h711v-147h-711z" />
<glyph unicode="&#x2012;" horiz-adv-x="894" d="M92 496v147h711v-147h-711z" />
<glyph unicode="&#x2013;" horiz-adv-x="1228" d="M92 485v168h1045v-168h-1045z" />
<glyph unicode="&#x2014;" horiz-adv-x="1351" d="M92 485v168h1168v-168h-1168z" />
<glyph unicode="&#x2018;" horiz-adv-x="415" d="M82 870v283q0 158 74.5 217.5t187.5 63.5v-68q-47 -18 -64.5 -61t-17.5 -119v-64h84v-252h-264z" />
<glyph unicode="&#x2019;" horiz-adv-x="415" d="M72 870v68q47 18 64.5 60t17.5 120v64h-82v252h264v-283q0 -158 -76 -217.5t-188 -63.5z" />
<glyph unicode="&#x201a;" horiz-adv-x="415" d="M82 -57v252h265v-281q0 -160 -76 -219.5t-189 -63.5v68q47 18 64.5 61t17.5 119v64h-82z" />
<glyph unicode="&#x201c;" horiz-adv-x="804" d="M82 872v283q0 158 74.5 217.5t187.5 63.5v-68q-47 -18 -64.5 -61t-17.5 -119v-64h84v-252h-264zM471 872v283q0 158 74.5 217.5t187.5 63.5v-68q-47 -18 -64.5 -61t-17.5 -119v-64h84v-252h-264z" />
<glyph unicode="&#x201d;" horiz-adv-x="804" d="M72 868v68q47 18 64.5 61t17.5 119v64h-82v252h262v-281q0 -160 -75 -219.5t-187 -63.5zM461 868v68q47 18 64.5 61t17.5 119v64h-82v252h262v-281q0 -160 -75 -219.5t-187 -63.5z" />
<glyph unicode="&#x201e;" horiz-adv-x="813" d="M82 -57v252h265v-281q0 -160 -76 -219.5t-189 -63.5v68q47 18 64.5 61t17.5 119v64h-82zM477 -57v252h265v-281q0 -160 -76 -219.5t-189 -63.5v68q47 18 64.5 61t17.5 119v64h-82z" />
<glyph unicode="&#x2022;" horiz-adv-x="546" d="M102 541q0 70 50.5 120t121.5 50q70 0 120 -50.5t50 -119.5q0 -70 -50 -121t-120 -51q-71 0 -121.5 50t-50.5 122z" />
<glyph unicode="&#x2026;" horiz-adv-x="1452" d="M102 0v250h236v-250h-236zM608 0v250h236v-250h-236zM1114 0v250h236v-250h-236z" />
<glyph unicode="&#x202f;" horiz-adv-x="385" />
<glyph unicode="&#x2039;" horiz-adv-x="456" d="M92 424v371l275 170v-164l-177 -191l177 -192v-164z" />
<glyph unicode="&#x203a;" horiz-adv-x="456" d="M92 256v164l176 192l-176 191v164l273 -170v-371z" />
<glyph unicode="&#x205f;" horiz-adv-x="481" />
<glyph unicode="&#x20ac;" horiz-adv-x="1417" d="M72 504v129h96q-2 27 -2 84v39h-94v129h104q39 279 204 422t417 143q221 0 371.5 -104.5t185.5 -298.5h-217q-39 106 -119 156t-217 50q-162 0 -263.5 -92t-131.5 -276h352v-129h-365v-39q0 -57 2 -84h363v-129h-344q37 -164 136 -244t251 -80q139 0 220 50.5t122 158.5 h215q-35 -197 -186.5 -301t-374.5 -104q-242 0 -404 132t-209 388h-112z" />
<glyph unicode="&#x2122;" horiz-adv-x="1069" d="M102 1356v78h349v-78h-129v-291h-93v291h-127zM520 1065v369h92l131 -287l131 287h93v-369h-93v217l-92 -217h-77l-93 217v-217h-92z" />
<glyph unicode="&#x25fc;" horiz-adv-x="1064" d="M0 0v1065h1065v-1065h-1065z" />
</font>
</defs>
</svg>
