<?xml version="1.0" standalone="no"?>
<!DOCTYPE svg PUBLIC "-//W3C//DTD SVG 1.1//EN" "http://www.w3.org/Graphics/SVG/1.1/DTD/svg11.dtd" >
<svg xmlns="http://www.w3.org/2000/svg">
<metadata></metadata>
<defs>
<font id="articulat_cfextra_bold" horiz-adv-x="1490" >
<font-face units-per-em="2048" ascent="1638" descent="-410" />
<missing-glyph horiz-adv-x="587" />
<glyph unicode="&#xfb01;" horiz-adv-x="1269" d="M41 831v234h176v39q0 147 50 224t126 100.5t176 23.5q53 0 84 -3t68 -11v-228q-33 4 -58.5 4h-33.5q-68 0 -93.5 -26.5t-25.5 -93.5v-29h197v-234h-197v-831h-293v831h-176zM868 0v1065h293v-1065h-293zM868 1194v240h293v-240h-293z" />
<glyph unicode="&#xfb02;" horiz-adv-x="1269" d="M41 831v234h176v39q0 147 50 224t126 100.5t176 23.5q53 0 84 -3t68 -11v-228q-33 4 -58.5 4h-33.5q-68 0 -93.5 -26.5t-25.5 -93.5v-29h197v-234h-197v-831h-293v831h-176zM868 0v1434h293v-1434h-293z" />
<glyph horiz-adv-x="0" />
<glyph horiz-adv-x="682" />
<glyph unicode=" "  horiz-adv-x="587" />
<glyph unicode="&#x09;" horiz-adv-x="587" />
<glyph unicode="&#xa0;" horiz-adv-x="587" />
<glyph unicode="!" horiz-adv-x="610" d="M143 0v332h324v-332h-324zM147 465v969h316v-969h-316z" />
<glyph unicode="&#x22;" horiz-adv-x="1030" d="M122 1024h293v410h-293v-410zM655 1024h293v410h-293v-410z" />
<glyph unicode="#" horiz-adv-x="1234" d="M92 352v232h201l26 266h-172v231h197l35 353h223l-37 -353h176l35 353h223l-36 -353h180v-231h-203l-27 -266h177v-232h-199l-35 -352h-223l35 352h-174l-35 -352h-223l34 352h-178zM516 584h174l27 266h-174z" />
<glyph unicode="$" horiz-adv-x="1308" d="M78 457h315q10 -84 52 -132.5t126 -62.5v365l-41 10q-201 47 -307 137t-106 277q0 172 122.5 276.5t331.5 120.5v170h166v-174q190 -20 308 -126t137 -292h-314q-16 117 -131 143v-313l43 -10q236 -55 338.5 -157.5t102.5 -285.5q0 -186 -135.5 -290.5t-348.5 -124.5 v-172h-166v170q-219 18 -348 138t-145 333zM432 1040q0 -51 30 -88t109 -57v276q-72 -12 -105.5 -48t-33.5 -83zM737 262q170 25 170 144q0 76 -40 115.5t-130 64.5v-324z" />
<glyph unicode="%" horiz-adv-x="1511" d="M92 1114q0 160 74 245t201 85q129 0 203.5 -85t74.5 -245q0 -170 -74.5 -258t-203.5 -88q-125 0 -200 88t-75 258zM227 0l846 1440l211 -6l-840 -1434h-217zM295 1118q0 -98 17.5 -130t60.5 -32q37 0 52 32t15 130q0 84 -15 111.5t-52 27.5q-43 0 -60.5 -27.5 t-17.5 -111.5zM866 336q0 160 74 245t201 85q129 0 203.5 -85t74.5 -245q0 -170 -77.5 -258t-206.5 -88q-125 0 -197 88t-72 258zM1069 338q0 -98 17.5 -130t60.5 -32q37 0 52 32t15 130q0 84 -15 111.5t-52 27.5q-43 0 -60.5 -27.5t-17.5 -111.5z" />
<glyph unicode="&#x26;" horiz-adv-x="1452" d="M106 420q0 113 50.5 190.5t113 118.5t148.5 82q-72 82 -111 155.5t-39 149.5q0 96 46 176t138.5 127t227.5 47q127 0 218 -47t139 -127t48 -176q0 -119 -63.5 -213t-200.5 -168l228 -231q37 82 57 176h278q-49 -217 -141 -375l148 -149l-203 -174l-117 124 q-164 -125 -422 -124q-139 0 -263 50t-202 149.5t-78 238.5zM428 436q0 -74 69.5 -127t174.5 -53q119 0 211 53l-289 312l-45 -21q-78 -37 -99.5 -78t-21.5 -86zM524 1122q0 -43 29 -91t90 -113q119 61 152.5 111t33.5 93q0 55 -34.5 92t-114.5 37t-118 -36.5t-38 -92.5z " />
<glyph unicode="'" horiz-adv-x="497" d="M102 1024h293v410h-293v-410z" />
<glyph unicode="(" horiz-adv-x="696" d="M92 655q0 260 54.5 474t162.5 397h283q-102 -186 -154.5 -400.5t-52.5 -470.5q0 -524 207 -921h-283q-109 195 -163 421t-54 500z" />
<glyph unicode=")" horiz-adv-x="696" d="M92 -266q207 397 207 921q0 256 -52 470t-155 401h283q108 -183 162.5 -397t54.5 -474q0 -274 -54.5 -500.5t-162.5 -420.5h-283z" />
<glyph unicode="*" horiz-adv-x="1083" d="M154 1116l57 242l217 -64l-6 228h235l-4 -230l219 66l58 -242l-193 -53l135 -180l-208 -127l-123 172l-121 -172l-209 127l135 180z" />
<glyph unicode="+" horiz-adv-x="1202" d="M92 451v254h373v372h270v-372h375v-254h-375v-373h-270v373h-373z" />
<glyph unicode="," horiz-adv-x="569" d="M100 -279q111 25 111 185v65h-109v346h365v-333q0 -211 -106.5 -283t-260.5 -70v90z" />
<glyph unicode="-" horiz-adv-x="923" d="M92 463v205h739v-205h-739z" />
<glyph unicode="." horiz-adv-x="528" d="M102 0v332h324v-332h-324z" />
<glyph unicode="/" horiz-adv-x="1015" d="M82 4l559 1430h293l-557 -1430h-295z" />
<glyph unicode="0" horiz-adv-x="1290" d="M66 690v53q0 244 82.5 403t214 230.5t282.5 71.5q152 0 283 -71.5t213 -230.5t82 -403v-53q0 -246 -82 -403.5t-213 -229t-283 -71.5t-283 71.5t-213.5 229t-82.5 403.5zM358 690q0 -199 67 -325.5t220 -126.5q152 0 218.5 127t66.5 325v53q0 199 -66.5 327t-218.5 128 q-154 0 -220.5 -128t-66.5 -327v-53z" />
<glyph unicode="1" horiz-adv-x="817" d="M82 969v239q117 14 191.5 67.5t107.5 158.5h293v-1434h-293v1075q-53 -57 -133 -81.5t-166 -24.5z" />
<glyph unicode="2" horiz-adv-x="1171" d="M90 936v39q0 217 124 345t368 128q164 0 275.5 -58.5t166.5 -156.5t55 -221q0 -119 -50 -201t-126 -137.5t-213 -134.5q-20 -10 -61 -35q-109 -59 -157 -119.5t-48 -136.5v-15h655v-233h-983v35q0 160 29 268.5t113 204.5t249 194l48 27q86 49 135 83t79.5 83t30.5 117 q0 178 -198 178q-86 0 -146.5 -46t-60.5 -169v-39h-285z" />
<glyph unicode="3" horiz-adv-x="1263" d="M92 457h287q6 -117 77.5 -171.5t172.5 -54.5q98 0 174 47.5t76 155.5q0 100 -64.5 148.5t-226.5 48.5h-66v211h66q141 0 181 55t40 135q0 82 -54.5 124t-131.5 42q-88 0 -143.5 -48t-55.5 -161h-289q0 215 130 337t358 122q145 0 252.5 -52.5t166 -144.5t58.5 -204 q0 -119 -77 -195t-177 -98q65 -4 141 -39t130 -107.5t54 -181.5q0 -129 -63.5 -230.5t-187 -158.5t-297.5 -57q-164 0 -284 61t-184.5 168.5t-62.5 247.5z" />
<glyph unicode="4" horiz-adv-x="1232" d="M82 338v233l623 863h292v-863h164v-233h-164v-338h-292v338h-623zM354 571h351v512z" />
<glyph unicode="5" horiz-adv-x="1277" d="M102 457h281q4 -113 81 -169.5t171 -56.5t174 56.5t80 199.5q0 102 -43 162t-99.5 82.5t-103.5 22.5q-154 0 -233 -109h-265l111 789h799v-250h-606l-43 -310q2 2 32.5 32t103 57.5t154.5 27.5q140 0 251.5 -60.5t175 -175t63.5 -268.5q0 -242 -148.5 -374.5 t-402.5 -132.5q-164 0 -285 60t-185.5 168.5t-62.5 248.5z" />
<glyph unicode="6" horiz-adv-x="1269" d="M102 719q0 330 139.5 529.5t413.5 199.5q160 0 270.5 -61.5t167 -152.5t62.5 -183h-297q-20 86 -69.5 116.5t-133.5 30.5q-164 0 -216 -122t-52 -263q10 25 49 59.5t103.5 61.5t148.5 27q107 0 219.5 -48.5t191.5 -158t79 -279.5q0 -178 -80 -289.5t-199 -158.5t-246 -47 q-240 0 -395.5 175t-155.5 564zM422 471q0 -90 39 -143.5t92 -75t100 -21.5q92 0 162 53.5t70 190.5q0 129 -72 187.5t-160 58.5q-51 0 -104 -24.5t-90 -80t-37 -145.5z" />
<glyph unicode="7" horiz-adv-x="1048" d="M72 1184v250h905v-250q-383 -569 -459 -1184h-305q90 614 489 1184h-630z" />
<glyph unicode="8" horiz-adv-x="1269" d="M92 449q0 125 63.5 218t178.5 144q-74 53 -109 123t-35 145q0 104 52.5 188.5t153 132.5t239.5 48t239.5 -48t152.5 -132t52 -189q0 -76 -34.5 -145.5t-108.5 -122.5q115 -51 178.5 -144.5t63.5 -217.5q0 -147 -74 -252t-198 -158t-271 -53q-150 0 -272.5 53 t-196.5 157.5t-74 252.5zM395 469q0 -98 58.5 -163.5t181.5 -65.5t181 65.5t58 163.5q0 115 -71.5 175.5t-167.5 60.5q-98 0 -169 -59.5t-71 -176.5zM455 1057q0 -78 44 -125t136 -47t135 47t43 125q0 72 -45 118t-133 46q-90 0 -135 -46.5t-45 -117.5z" />
<glyph unicode="9" horiz-adv-x="1269" d="M92 956q0 178 80 290t198.5 159t245.5 47q240 0 395.5 -175t155.5 -564q0 -330 -139 -529.5t-414 -199.5q-160 0 -270.5 61t-166.5 152.5t-62 183.5h297q20 -84 69 -114.5t133 -30.5q164 0 216.5 120.5t52.5 261.5q-10 -25 -49 -59.5t-103.5 -61t-148.5 -26.5 q-107 0 -219.5 48t-191.5 157.5t-79 279.5zM385 956q0 -129 71.5 -186t159.5 -57q86 0 159 59t73 189q0 90 -39 144t-92 75.5t-101 21.5q-92 0 -161.5 -54t-69.5 -192z" />
<glyph unicode=":" horiz-adv-x="528" d="M102 0v332h324v-332h-324zM102 739v332h324v-332h-324z" />
<glyph unicode=";" horiz-adv-x="569" d="M100 -279q111 25 111 185v65h-109v346h365v-333q0 -211 -106.5 -283t-260.5 -70v90zM102 733v332h324v-332h-324z" />
<glyph unicode="&#x3c;" horiz-adv-x="1038" d="M92 369l854 -369v272l-588 224l588 221v272l-854 -368v-252z" />
<glyph unicode="=" horiz-adv-x="980" d="M90 299v205h801v-205h-801zM90 627v204h801v-204h-801z" />
<glyph unicode="&#x3e;" horiz-adv-x="1038" d="M92 0l854 369v252l-854 368v-272l588 -221l-588 -224v-272z" />
<glyph unicode="?" horiz-adv-x="1155" d="M92 954h293q0 111 48 177.5t159 66.5q178 0 178 -162q0 -49 -29.5 -83.5t-91.5 -82.5q-61 -47 -101 -88t-67.5 -106.5t-27.5 -157.5v-53h313v53q0 82 34 129t105 105q51 41 83 73.5t53.5 85t21.5 125.5q0 195 -130 303.5t-341 108.5q-223 0 -363.5 -120t-136.5 -374z M451 0v332h323v-332h-323z" />
<glyph unicode="@" horiz-adv-x="1552" d="M72 707q0 215 99 385t260 263t339 93q186 0 350 -94t262.5 -259t98.5 -368q0 -119 -43 -201t-115 -124t-156 -42q-72 0 -114.5 30t-98.5 91q-25 -45 -84 -83t-143 -38q-72 0 -142.5 37t-117.5 115t-47 195q0 113 46 190.5t115.5 114.5t139.5 37q51 0 97 -21.5t73 -54.5 v69h211v-428q0 -25 20.5 -38t55.5 -13q66 0 86 41t20 123q0 139 -65.5 259t-183 190.5t-265.5 70.5q-133 0 -248.5 -72.5t-185.5 -196.5t-70 -271q0 -135 71 -256t187.5 -194t245.5 -73q78 0 160 27t135 72l238 -60q-82 -113 -223.5 -175t-309.5 -62q-178 0 -339 92 t-260 257t-99 372zM635 707q0 -47 28.5 -88t94.5 -41q61 0 86.5 37.5t25.5 91.5q0 121 -112 120q-68 0 -95.5 -35.5t-27.5 -84.5z" />
<glyph unicode="A" d="M45 0l571 1434h258l572 -1434h-342l-90 256h-537l-90 -256h-342zM559 487h373l-187 527z" />
<glyph unicode="B" horiz-adv-x="1312" d="M106 0v1434h572q213 0 338 -103.5t125 -275.5q0 -186 -174 -267q125 -40 197.5 -137.5t72.5 -212.5q0 -207 -135 -322.5t-404 -115.5h-592zM424 264h274q211 0 211 178q0 88 -44 139.5t-167 51.5h-274v-369zM424 874h258q74 0 107.5 43.5t33.5 112.5q0 66 -32.5 102.5 t-90.5 36.5h-276v-295z" />
<glyph unicode="C" horiz-adv-x="1378" d="M66 717q0 238 79.5 402.5t225 247.5t342.5 83q152 0 279.5 -51t212.5 -155.5t104 -256.5h-305q-43 104 -105.5 144t-179.5 40q-326 0 -326 -454q0 -455 326 -455q119 0 182.5 41t104.5 146h307q-18 -154 -103.5 -258.5t-214.5 -155.5t-282 -51q-197 0 -342.5 83 t-225 247.5t-79.5 402.5z" />
<glyph unicode="D" horiz-adv-x="1429" d="M106 0v1434h562q325 0 500 -185.5t175 -531.5t-175 -531.5t-500 -185.5h-562zM424 279h217q141 0 222 46t116 141t35 251t-35 251t-116 141t-222 46h-217v-876z" />
<glyph unicode="E" horiz-adv-x="1148" d="M106 0v1434h955v-279h-637v-297h514v-262h-514v-317h657v-279h-975z" />
<glyph unicode="F" horiz-adv-x="1095" d="M106 0v1434h934v-279h-616v-326h506v-262h-506v-567h-318z" />
<glyph unicode="G" horiz-adv-x="1417" d="M66 717q0 238 80.5 402.5t229 247.5t349.5 83q143 0 269 -48t211 -141.5t104 -222.5h-293q-47 72 -111.5 102.5t-173.5 30.5q-170 0 -254 -115.5t-84 -338.5q0 -221 83 -338t249 -117q170 0 249 55.5t93 194.5h-260v246h504h39q2 -35 2 -101q0 -238 -62.5 -385 t-200 -217.5t-364.5 -70.5q-201 0 -349.5 84t-229 248.5t-80.5 400.5z" />
<glyph unicode="H" horiz-adv-x="1390" d="M106 0v1434h318v-594h545v594h315v-1434h-315v592h-545v-592h-318z" />
<glyph unicode="I" horiz-adv-x="530" d="M106 0v1434h318v-1434h-318z" />
<glyph unicode="J" horiz-adv-x="1105" d="M55 154l195 192q35 -47 84 -70.5t123 -23.5q78 0 126 18.5t79.5 96t31.5 241.5v826h316v-891q0 -195 -78 -320t-203 -181t-268 -56q-260 0 -406 168z" />
<glyph unicode="K" d="M106 0v1434h318v-738l588 738h364l-567 -678l621 -756h-351l-432 561l-223 -268v-293h-318z" />
<glyph unicode="L" horiz-adv-x="1079" d="M106 0v1434h318v-1155h580v-279h-898z" />
<glyph unicode="M" horiz-adv-x="1740" d="M106 0v1434h318l446 -1031l447 1031h315v-1434h-315v784l-324 -784h-245l-324 784v-784h-318z" />
<glyph unicode="N" horiz-adv-x="1378" d="M106 0v1434h302l548 -881v881h316v-1434h-314l-534 883v-883h-318z" />
<glyph unicode="O" horiz-adv-x="1445" d="M66 717q0 356 176 544.5t481 188.5t481 -188.5t176 -544.5t-176 -544.5t-481 -188.5t-481 188t-176 545zM393 717q0 -455 330 -455t330 455q0 454 -329 454h-1q-330 0 -330 -454z" />
<glyph unicode="P" horiz-adv-x="1288" d="M106 0v1434h574q270 0 403.5 -134.5t133.5 -361.5t-133.5 -361.5t-403.5 -134.5h-256v-442h-318zM424 723h254q108 0 155.5 53t47.5 162t-47.5 162t-155.5 53h-254v-430z" />
<glyph unicode="Q" horiz-adv-x="1470" d="M66 717q0 356 176 544.5t481 188.5t481 -188.5t176 -544.5q0 -274 -108 -453l133 -135l-191 -182l-127 129q-150 -92 -364 -92q-305 0 -481 188t-176 545zM393 717q0 -455 330 -455q83 0 149 31l-172 176l191 180l139 -141q23 94 23 209q0 454 -329 454h-1 q-330 0 -330 -454z" />
<glyph unicode="R" horiz-adv-x="1366" d="M106 0v1434h629q274 0 398 -120t124 -329q0 -121 -53 -194.5t-145 -128.5q115 -53 162 -127t47 -189v-106q0 -109 7 -150t34 -90h-336q-27 49 -34 90t-7 150v98q0 86 -41 135t-129 49h-338v-522h-318zM424 778h299q82 0 124 18.5t57.5 59.5t15.5 119q0 98 -43 138 t-148 40h-305v-375z" />
<glyph unicode="S" horiz-adv-x="1343" d="M76 457h327q16 -100 78 -150.5t189 -50.5q133 0 200.5 38t67.5 112q0 80 -47 121.5t-158 66.5l-186 43q-209 47 -319.5 137t-110.5 277q0 123 67.5 213t191.5 138t286 48q240 0 390 -106.5t173 -317.5h-326q-12 86 -71.5 119t-165.5 33q-111 0 -164.5 -39t-53.5 -99 q0 -51 32 -88t118 -57l215 -49q244 -55 350.5 -157.5t106.5 -285.5q0 -139 -81 -233t-217.5 -140t-301.5 -46q-260 0 -415 120.5t-175 352.5z" />
<glyph unicode="T" horiz-adv-x="1206" d="M55 1153v281h707h389v-281h-389v-1153h-316v1153h-391z" />
<glyph unicode="U" horiz-adv-x="1386" d="M106 541v893h318v-854q0 -162 73.5 -239t196.5 -77q121 0 195 77t74 239v854h317v-893q0 -166 -79 -292t-212 -194.5t-295 -68.5q-164 0 -298 68.5t-212 194.5t-78 292z" />
<glyph unicode="V" horiz-adv-x="1476" d="M45 1434h336l356 -1059l359 1059h334l-562 -1434h-260z" />
<glyph unicode="W" horiz-adv-x="2123" d="M55 1434h324l248 -969l286 969h297l289 -969l246 969h323l-411 -1434h-283l-311 965l-313 -965h-283z" />
<glyph unicode="X" horiz-adv-x="1472" d="M72 0l493 750l-448 684h344l276 -422l277 422h344l-449 -684l492 -750h-344l-320 489l-321 -489h-344z" />
<glyph unicode="Y" horiz-adv-x="1452" d="M45 1434h354l326 -635l326 635h354l-522 -918v-516h-316v516z" />
<glyph unicode="Z" horiz-adv-x="1249" d="M90 1153v281h1028v-281l-710 -872h749v-281h-1065v281l707 872h-709z" />
<glyph unicode="[" horiz-adv-x="630" d="M92 -266v1792h447v-250h-154v-1292h154v-250h-447z" />
<glyph unicode="\" horiz-adv-x="1060" d="M127 1434h295l557 -1430h-293z" />
<glyph unicode="]" horiz-adv-x="630" d="M92 -16h154v1292h-154v250h447v-1792h-447v250z" />
<glyph unicode="^" horiz-adv-x="1026" d="M92 952l334 482h174l334 -482h-223l-197 289l-199 -289h-223z" />
<glyph unicode="_" horiz-adv-x="1208" d="M92 0h1024v-252h-1024v252z" />
<glyph unicode="`" horiz-adv-x="495" d="M0 1452l233 -262h263l-84 262h-412z" />
<glyph unicode="a" horiz-adv-x="1159" d="M55 301q0 162 112 235.5t261 92.5l72 8q94 10 149.5 20.5t89.5 32.5v10q0 96 -46 125t-128 29q-76 0 -119 -21.5t-55 -78.5h-274q14 158 127.5 240.5t318.5 82.5q170 0 272.5 -45t149.5 -142t47 -259v-336q0 -88 80 -92v-195q-27 -12 -50.5 -15t-57.5 -3q-102 0 -168 44 t-66 126v8q-27 -57 -103.5 -121.5t-228.5 -64.5q-166 0 -274.5 79.5t-108.5 239.5zM350 319q0 -49 33 -83.5t100 -34.5q102 0 166 41t90 86v168q-39 -18 -70.5 -25.5t-109.5 -19.5l-92 -15q-117 -14 -117 -117z" />
<glyph unicode="b" horiz-adv-x="1167" d="M106 0v1434h293v-502q37 61 100.5 103t180.5 42q100 0 202.5 -57t173 -180t70.5 -308q0 -186 -70.5 -311t-174 -182t-201.5 -57q-92 0 -154.5 30.5t-93.5 67.5t-33 55v-135h-293zM387 532q0 -156 63.5 -234.5t167.5 -78.5q101 0 159.5 77t58.5 236q0 158 -58.5 233 t-159.5 75q-104 0 -167.5 -77t-63.5 -231z" />
<glyph unicode="c" horiz-adv-x="1091" d="M55 526q0 193 74 316t188.5 179t245.5 56q379 0 459 -362h-268q-35 125 -185 125q-109 0 -166 -80t-57 -234q0 -150 57.5 -228.5t165.5 -78.5q150 0 193 137h264q-43 -205 -169 -289.5t-294 -84.5q-131 0 -245.5 55t-188.5 177t-74 312z" />
<glyph unicode="d" horiz-adv-x="1198" d="M55 532q0 184 71 307.5t174 180.5t204 57q198 0 278 -145v502h293v-1434h-293v135q-2 -18 -31.5 -55t-92 -67.5t-154.5 -30.5q-100 0 -203.5 57t-174.5 182t-71 311zM346 532q0 -160 59.5 -236.5t159.5 -76.5q105 0 167.5 79t62.5 234q0 154 -62.5 231t-167.5 77 q-100 0 -159.5 -75t-59.5 -233z" />
<glyph unicode="e" horiz-adv-x="1130" d="M55 526q0 188 76 312.5t194.5 181.5t249.5 57q221 0 360.5 -145.5t139.5 -439.5v-54h-725q18 -113 83 -166t167 -53q59 0 108.5 22.5t73.5 65.5h277q-57 -168 -177 -246.5t-311 -78.5q-123 0 -241.5 57t-196.5 179t-78 308zM352 635h432q-14 104 -66 154.5t-143 50.5 q-88 0 -145 -52.5t-78 -152.5z" />
<glyph unicode="f" horiz-adv-x="761" d="M41 831v234h176v39q0 147 50 224t126 100.5t176 23.5q53 0 84 -3t68 -11v-228q-33 4 -58.5 4h-33.5q-68 0 -93.5 -26.5t-25.5 -93.5v-29h197v-234h-197v-831h-293v831h-176z" />
<glyph unicode="g" horiz-adv-x="1198" d="M55 532q0 184 71 307.5t174 180.5t204 57q199 0 278 -145v133h293v-1020v-16q-6 -270 -168 -375t-377 -105q-160 0 -276.5 64.5t-173.5 173.5l182 113q37 -47 99.5 -79t168.5 -32q133 0 192.5 58.5t59.5 197.5v90q-2 -14 -32.5 -48t-92 -62.5t-153.5 -28.5 q-100 0 -203.5 56.5t-174.5 177t-71 302.5zM346 532q0 -152 59.5 -221t159.5 -69h2q228 0 228 290q0 154 -61.5 226.5t-168.5 72.5q-100 0 -159.5 -70.5t-59.5 -228.5z" />
<glyph unicode="h" horiz-adv-x="1230" d="M106 0v1434h293v-578q35 76 125 147.5t221 71.5q377 0 377 -432v-643h-293v629q0 104 -45 150t-127 46q-66 0 -122 -33.5t-91.5 -80.5t-44.5 -84v-627h-293z" />
<glyph unicode="i" horiz-adv-x="507" d="M106 0v1065h293v-1065h-293zM106 1194v240h293v-240h-293z" />
<glyph unicode="j" horiz-adv-x="516" d="M-127 -109l66 -18q80 -25 116 -25q39 0 55.5 36t16.5 79v1102h293v-1198q0 -158 -86 -238t-238 -80q-55 0 -102 11.5t-121 38.5v292zM127 1174v260h293v-260h-293z" />
<glyph unicode="k" horiz-adv-x="1206" d="M106 0v375v1059h293v-750l363 381h350l-444 -459l503 -606h-344l-348 410l-80 -82v-328h-293z" />
<glyph unicode="l" horiz-adv-x="507" d="M106 0v1434h293v-1434h-293z" />
<glyph unicode="m" horiz-adv-x="1888" d="M106 0v1065h293v-209q35 78 119 148.5t211 70.5q121 0 207 -54t125 -171q39 88 138 156.5t220 68.5q164 0 263.5 -107.5t99.5 -342.5v-625h-293v618q0 104 -49 155.5t-123 51.5q-59 0 -111.5 -33.5t-84 -78.5t-31.5 -76v-637h-293v629q0 102 -48.5 149t-121.5 47 q-59 0 -108.5 -33.5t-79 -79.5t-40.5 -85v-627h-293z" />
<glyph unicode="n" horiz-adv-x="1230" d="M106 0v1065h293v-209q35 76 125 147.5t221 71.5q377 0 377 -432v-643h-293v629q0 104 -45 150t-127 46q-66 0 -122 -33.5t-91.5 -80.5t-44.5 -84v-627h-293z" />
<glyph unicode="o" horiz-adv-x="1150" d="M55 526q0 186 79 311.5t199 182.5t242 57q123 0 242 -57t198 -182t79 -312q0 -186 -79 -309t-198 -179t-242 -56t-242.5 56t-198.5 179t-79 309zM346 526q0 -156 63.5 -231.5t165.5 -75.5q100 0 164 77t64 230q0 160 -63.5 237t-164.5 77q-102 0 -165.5 -77t-63.5 -237z " />
<glyph unicode="p" horiz-adv-x="1169" d="M106 -389v1454h293v-131q86 143 277 143q104 0 208.5 -58t175 -181t70.5 -306q0 -186 -70.5 -309t-175 -180t-208.5 -57q-90 0 -151.5 29.5t-91.5 64.5t-34 53v-522h-293zM387 532q0 -156 60.5 -228.5t166.5 -72.5q226 0 226 301q0 299 -226 299q-102 0 -164.5 -73.5 t-62.5 -225.5z" />
<glyph unicode="q" horiz-adv-x="1185" d="M55 532q0 182 71 305.5t175.5 181.5t208.5 58q113 0 176.5 -41t99.5 -102v131h293v-1454h-293v522q-4 -18 -33.5 -53t-91 -64.5t-151.5 -29.5q-104 0 -208.5 57t-175.5 180t-71 309zM346 532q0 -301 225 -301q107 0 167.5 73t60.5 228q0 152 -62.5 225.5t-165.5 73.5 q-225 0 -225 -299z" />
<glyph unicode="r" horiz-adv-x="841" d="M96 0v1065h293v-242q27 115 106.5 183.5t206.5 68.5q50 0 105 -8v-258l-78 2q-158 0 -236.5 -64.5t-103.5 -185.5v-561h-293z" />
<glyph unicode="s" horiz-adv-x="1042" d="M45 322h272q16 -61 68.5 -91t124.5 -30q92 0 133 28.5t41 81.5q0 43 -23.5 67.5t-82.5 37.5l-172 37q-178 39 -253 109.5t-75 195.5q0 147 111.5 233t310.5 86q207 0 317.5 -88t138.5 -244h-270q-18 64 -62 90.5t-118 26.5q-66 0 -99.5 -25.5t-33.5 -74.5 q0 -47 22.5 -70.5t79.5 -38.5l184 -41q113 -25 179.5 -54.5t106.5 -87.5t40 -159q0 -162 -128 -243.5t-347 -81.5q-205 0 -324.5 84t-140.5 252z" />
<glyph unicode="t" horiz-adv-x="772" d="M41 831v234h154v266h292v-266h205v-234h-205v-497q0 -104 99 -105q47 1 125 15v-226q-66 -30 -204 -30h-9q-139 0 -221 74.5t-82 277.5v491h-154z" />
<glyph unicode="u" horiz-adv-x="1230" d="M109 422v643h292v-629q0 -104 45.5 -150t126.5 -46q66 0 122.5 33.5t92 80.5t43.5 84v627h293v-1065h-293v209q-35 -76 -125 -147.5t-221 -71.5q-377 0 -376 432z" />
<glyph unicode="v" horiz-adv-x="1214" d="M35 1065h295l278 -768l277 768h295l-412 -1065h-322z" />
<glyph unicode="w" horiz-adv-x="1667" d="M35 1065h295l172 -694l215 694h231l217 -694l170 694h295l-301 -1065h-250l-245 719l-246 -719h-252z" />
<glyph unicode="x" horiz-adv-x="1191" d="M41 0l393 555l-360 510h323l199 -281l199 281h325l-362 -510l395 -555h-324l-233 328l-231 -328h-324z" />
<glyph unicode="y" horiz-adv-x="1183" d="M35 1065h291l262 -731l270 731h291l-416 -1075q-61 -158 -144 -240t-179.5 -108.5t-237.5 -32.5v256q100 4 172 25.5t107 82.5z" />
<glyph unicode="z" horiz-adv-x="1032" d="M76 0v246l530 573h-510v246h858v-246l-528 -573h528v-246h-878z" />
<glyph unicode="{" horiz-adv-x="712" d="M92 627l92 149v520q0 129 70 179.5t160 50.5h207v-250h-72q-33 0 -52.5 -16.5t-19.5 -47.5v-446l-112 -139l112 -135v-445q0 -31 19.5 -47t52.5 -16h72v-250h-207q-92 0 -161 50t-69 179v518z" />
<glyph unicode="|" horiz-adv-x="559" d="M154 -389v2027h252v-2027h-252z" />
<glyph unicode="}" horiz-adv-x="712" d="M92 -16h72q33 0 52.5 16t19.5 47v445l114 135l-114 139v446q0 31 -19.5 47.5t-52.5 16.5h-72v250h207q90 0 159.5 -50.5t69.5 -179.5v-520l93 -149l-93 -146v-518q0 -129 -68.5 -179t-160.5 -50h-207v250z" />
<glyph unicode="~" horiz-adv-x="1085" d="M102 494q0 121 68 198.5t192 77.5q57 0 103.5 -21.5t109.5 -64.5q59 -39 103.5 -59.5t95.5 -20.5q35 0 62.5 18.5t25.5 47.5h121q0 -121 -67.5 -199t-192.5 -78q-57 0 -103.5 21.5t-109.5 64.5q-59 39 -103.5 59.5t-95.5 20.5q-35 0 -62.5 -18.5t-25.5 -46.5h-121z" />
<glyph unicode="&#xa1;" horiz-adv-x="542" d="M143 733v332h324v-332h-324zM147 -369v971h316v-971h-316z" />
<glyph unicode="&#xa2;" horiz-adv-x="1083" d="M55 670q0 248 124 379t308 155v230h162v-230q303 -39 373 -350h-268q-25 86 -105 113v-586q82 27 113 121h264q-37 -172 -138.5 -258t-238.5 -103v-223h-162v221q-184 25 -308 155t-124 376zM346 670q0 -234 141 -287v580q-70 -27 -105.5 -101t-35.5 -192z" />
<glyph unicode="&#xa3;" horiz-adv-x="1198" d="M92 590v160h103q-43 68 -66 125t-23 131q0 133 69 233t183.5 154.5t249.5 54.5q127 0 242 -53.5t185.5 -150.5t70.5 -224v-37h-293v37q0 70 -45 124t-160 54q-121 0 -165 -56.5t-44 -133.5q0 -63 25 -114.5t82 -143.5h231v-160h-162q6 -27 7 -60q0 -86 -45 -150.5 t-156 -148.5q82 31 166 31q53 0 160 -16q115 -20 188 -21q98 0 190 27v-252q-82 -20 -180 -20q-88 0 -235 28q-131 25 -199 25q-115 0 -229 -53l-140 176q98 84 146.5 165.5t48.5 172.5q0 55 -14 96h-191z" />
<glyph unicode="&#xa4;" horiz-adv-x="1226" d="M100 692l90 92q-41 88 -40 191q0 104 45 199l-95 96l187 182l84 -84q111 66 237 66q135 0 244 -70l88 88l186 -182l-100 -103q41 -92 41 -192q0 -104 -39 -184l98 -99l-186 -184l-80 82q-115 -74 -252 -74q-131 0 -243 70l-78 -78zM389 975q0 -43 20.5 -93.5t69.5 -88 t129 -37.5t130 37.5t70.5 88t20.5 93.5q0 41 -20.5 92t-70.5 89t-130 38t-129 -38t-69.5 -89t-20.5 -92z" />
<glyph unicode="&#xa5;" horiz-adv-x="1482" d="M45 1434h354l326 -635l326 635h354l-514 -904h250v-186h-258v-78h258v-184h-258v-82h-316v82h-225v184h225v78h-225v186h219z" />
<glyph unicode="&#xa6;" horiz-adv-x="559" d="M154 184h252v-573h-252v573zM154 1065v573h252v-573h-252z" />
<glyph unicode="&#xa7;" horiz-adv-x="1437" d="M129 -10h328q16 -100 77.5 -150.5t188.5 -50.5q133 0 200.5 38t67.5 112q0 80 -47 121.5t-158 66.5l-186 43q-209 47 -319.5 137t-110.5 277q0 141 88 239q-68 90 -68 228q0 123 68 213t191.5 138t285.5 48q240 0 390.5 -106.5t172.5 -317.5h-325q-12 86 -71.5 119 t-166.5 33q-111 0 -164 -39t-53 -99q0 -51 32 -88t118 -57l215 -49q244 -55 350 -157.5t106 -285.5q0 -141 -82 -235q61 -90 62 -234q0 -137 -81 -231t-217 -140t-302 -46q-260 0 -414.5 120.5t-175.5 352.5zM498 573q0 -51 31.5 -87.5t117.5 -57.5l215 -49q74 -14 135 -37 q14 27 15 64q0 80 -47 121.5t-158 66.5l-186 43q-37 8 -91 22q-33 -35 -32 -86z" />
<glyph unicode="&#xa8;" horiz-adv-x="776" d="M0 1229v223h297v-223h-297zM477 1229v223h299v-223h-299z" />
<glyph unicode="&#xa9;" horiz-adv-x="1605" d="M72 717q0 207 98 373.5t265 261t368 94.5t367.5 -94.5t265 -261t98.5 -373.5t-98.5 -375t-265 -262t-367.5 -94t-368 94t-265 262t-98 375zM242 717q0 -162 74.5 -290t202.5 -199.5t284 -71.5q155 0 284.5 71.5t204 199.5t74.5 290t-76 290t-204 199.5t-283 71.5 q-156 0 -284 -71.5t-202.5 -199.5t-74.5 -290zM408 717q0 127 55 220t146 141t196 48q121 0 222 -67.5t140 -220.5h-202q-14 51 -56.5 78.5t-103.5 27.5q-88 0 -144.5 -58.5t-56.5 -168.5q0 -111 56.5 -170.5t144.5 -59.5q131 0 164 111h200q-37 -156 -140 -223.5 t-224 -67.5q-104 0 -195.5 48t-146.5 141.5t-55 220.5z" />
<glyph unicode="&#xaa;" horiz-adv-x="776" d="M55 983q0 102 64.5 145t208.5 56l164 12q2 66 -29 87.5t-105 21.5q-70 0 -111.5 -12.5t-72.5 -41.5l-96 97q102 119 280 118q176 0 253 -79.5t79 -243.5v-197q0 -86 41 -176h-172q-4 4 -18.5 49t-20.5 62q-43 -53 -92 -84t-123 -31q-115 0 -182.5 47t-67.5 170zM248 981 q0 -31 19.5 -44t68.5 -13q55 0 86 14t43 34.5t27 57.5v33q-63 -8 -111 -10l-59 -6q-49 -2 -61.5 -17.5t-12.5 -48.5z" />
<glyph unicode="&#xab;" horiz-adv-x="966" d="M92 342v539l289 143v-229l-162 -183l162 -184v-229zM586 342v539l288 143v-229l-161 -183l161 -184v-229z" />
<glyph unicode="&#xac;" horiz-adv-x="1069" d="M92 414v225h885v-430h-293v205h-592z" />
<glyph unicode="&#xad;" horiz-adv-x="819" d="M92 463v205h739v-205h-739z" />
<glyph unicode="&#xae;" horiz-adv-x="1605" d="M72 717q0 207 98 373.5t265 261t368 94.5t367.5 -94.5t265 -261t98.5 -373.5t-98.5 -375t-265 -262t-367.5 -94t-368 94t-265 262t-98 375zM242 717q0 -162 74.5 -290t202.5 -199.5t284 -71.5q155 0 284.5 71.5t204 199.5t74.5 290t-76 290t-204 199.5t-283 71.5 q-156 0 -284 -71.5t-202.5 -199.5t-74.5 -290zM520 309v815h303q268 0 269 -235q0 -152 -168 -201q92 -14 131 -55t39 -119v-65q-1 -111 24 -140h-176q-14 18 -14 150v45q0 66 -33 89t-92 23h-123v-307h-160zM680 750h119q137 0 137 139q0 41 -27.5 71.5t-85.5 30.5h-143 v-241z" />
<glyph unicode="&#xaf;" horiz-adv-x="737" d="M0 1282v170h737v-170h-737z" />
<glyph unicode="&#xb0;" horiz-adv-x="794" d="M92 1171q0 80 42 150t111.5 111t151.5 41t151.5 -41t111.5 -111t42 -150q0 -82 -42 -151.5t-111.5 -110.5t-151.5 -41t-151.5 41t-111.5 111t-42 151zM305 1171q0 -29 19.5 -62.5t72.5 -33.5q54 0 73 34t19 62q0 27 -19 61t-73 34q-53 0 -72.5 -34t-19.5 -61z" />
<glyph unicode="&#xb1;" horiz-adv-x="1202" d="M92 662v254h373v372h270v-372h375v-254h-375v-373h-270v373h-373zM201 -26v204h799v-204h-799z" />
<glyph unicode="&#xb2;" horiz-adv-x="552" d="M112 901v14q0 90 29 146.5t119 109.5q10 6 42.5 23.5t46 36t13.5 47.5q0 31 -20.5 47t-47.5 16t-48 -18t-21 -57v-15h-113v15q0 80 46 129t136 49t139.5 -47t49.5 -119q0 -47 -22.5 -81t-51.5 -53.5t-98 -60.5q-70 -41 -70 -75v-7h240v-100h-369z" />
<glyph unicode="&#xb3;" horiz-adv-x="559" d="M113 1067h110q2 -39 25.5 -57.5t62.5 -18.5q37 0 62.5 15.5t25.5 46.5q0 41 -22.5 61.5t-81.5 20.5h-23v92h23q53 0 64.5 17.5t11.5 49.5q0 20 -18.5 36t-45.5 16q-68 0 -67 -70h-109q0 80 48 124t128 44t127 -41t47 -105q0 -45 -25.5 -74.5t-60.5 -37.5q41 -4 78 -37 t37 -98q0 -68 -54.5 -113t-146.5 -45q-88 0 -142 49t-54 125z" />
<glyph unicode="&#xb4;" horiz-adv-x="495" d="M0 1190h262l234 262h-412z" />
<glyph unicode="&#xb5;" horiz-adv-x="1210" d="M92 -389v1454h293h16v-629q0 -104 45.5 -150t126.5 -46q66 0 122.5 33.5t92 80.5t43.5 84v627h293v-1065h-293v209q-35 -76 -125 -147.5t-221 -71.5q-59 0 -100 8v-387h-293z" />
<glyph unicode="&#xb6;" horiz-adv-x="1429" d="M61 1016q0 109 54.5 205t161 154.5t251.5 58.5h361h428v-1885h-238v1713h-190v-1713h-262v1049h-99q-145 0 -251.5 58.5t-161 154.5t-54.5 205z" />
<glyph unicode="&#xb7;" horiz-adv-x="542" d="M102 416v332h324v-332h-324z" />
<glyph unicode="&#xb8;" horiz-adv-x="425" d="M0 -170l98 172h242l-117 -123q84 -2 143.5 -49t59.5 -131q0 -127 -107.5 -170t-304.5 -43v119q96 2 143.5 22.5t47.5 63.5q0 27 -17.5 43t-44.5 16q-39 0 -73 -33z" />
<glyph unicode="&#xb9;" horiz-adv-x="409" d="M61 1239v123q29 0 56.5 22.5t39.5 51.5h107v-535h-107v391q-14 -25 -39.5 -39t-56.5 -14z" />
<glyph unicode="&#xba;" horiz-adv-x="776" d="M55 1110q0 102 48.5 180t125 119t160.5 41q82 0 159 -41t125 -119t48 -180q0 -106 -48 -185t-125 -120t-159 -41q-84 0 -160.5 41t-125 120t-48.5 185zM242 1112q0 -76 40 -122t107 -46q66 0 104.5 45t38.5 123q0 72 -39.5 117t-103.5 45q-68 0 -107.5 -45t-39.5 -117z " />
<glyph unicode="&#xbb;" horiz-adv-x="966" d="M92 199v229l162 184l-162 183v229l289 -143v-539zM586 199v229l162 184l-162 183v229l288 -143v-539z" />
<glyph unicode="&#xbc;" horiz-adv-x="1165" d="M80 0l895 1434h145l-893 -1434h-147zM141 1239v123q29 0 56.5 22.5t39.5 51.5h107v-535h-107v391q-14 -25 -39.5 -39t-56.5 -14zM734 135v88l237 312h109v-312h61v-88h-61v-135h-109v135h-237zM828 223h143v187z" />
<glyph unicode="&#xbd;" horiz-adv-x="1228" d="M76 0l895 1434h145l-893 -1434h-147zM121 1239v123q29 0 56.5 22.5t39.5 51.5h107v-535h-107v391q-14 -25 -39.5 -39t-56.5 -14zM758 0v14q0 90 29 146.5t119 109.5q10 6 42.5 23.5t46 36t13.5 47.5q0 31 -20.5 47t-47.5 16t-48 -18.5t-21 -56.5v-15h-113v15q0 80 46 129 t136 49t139.5 -47t49.5 -119q0 -47 -22.5 -81t-51.5 -53.5t-98 -60.5q-70 -41 -70 -76v-6h240v-100h-369z" />
<glyph unicode="&#xbe;" horiz-adv-x="1284" d="M72 0l895 1434h145l-893 -1434h-147zM72 1067h110q2 -39 25.5 -57.5t62.5 -18.5q37 0 62.5 15.5t25.5 46.5q0 41 -22.5 61.5t-81.5 20.5h-23v92h23q53 0 64.5 17.5t11.5 49.5q0 20 -18.5 36t-45.5 16q-68 0 -67 -70h-109q0 80 48 124t128 44t127 -41t47 -105 q0 -45 -25.5 -74.5t-60.5 -37.5q41 -4 78 -37t37 -98q0 -68 -54.5 -113t-146.5 -45q-88 0 -142 49t-54 125zM770 135v88l237 312h109v-312h61v-88h-61v-135h-109v135h-237zM864 223h143v187z" />
<glyph unicode="&#xbf;" horiz-adv-x="1155" d="M92 29q0 -195 130 -303.5t341 -108.5q221 0 361.5 120t138.5 374h-293q0 -111 -48 -177.5t-159 -66.5q-178 0 -178 162q0 49 29.5 83.5t91.5 82.5q61 47 101 88t67.5 106.5t27.5 157.5v55h-313v-55q0 -82 -33.5 -129t-105.5 -105q-51 -41 -83 -73.5t-53.5 -85 t-21.5 -125.5zM381 733v332h324v-332h-324z" />
<glyph unicode="&#xc0;" d="M45 0l571 1434h258l572 -1434h-342l-90 256h-537l-90 -256h-342zM391 1821l233 -262h263l-84 262h-412zM559 487h373l-187 527z" />
<glyph unicode="&#xc1;" d="M45 0l571 1434h258l572 -1434h-342l-90 256h-537l-90 -256h-342zM559 487h373l-187 527zM610 1559h262l234 262h-412z" />
<glyph unicode="&#xc2;" d="M45 0l571 1434h258l572 -1434h-342l-90 256h-537l-90 -256h-342zM332 1534l143 287h539l143 -287h-229l-182 160l-185 -160h-229zM559 487h373l-187 527z" />
<glyph unicode="&#xc3;" d="M45 0l571 1434h258l572 -1434h-342l-90 256h-537l-90 -256h-342zM336 1635q0 115 64.5 189.5t183.5 74.5q55 0 101 -20.5t106 -61.5q57 -39 98 -58.5t88 -19.5q33 0 59.5 18.5t24.5 45.5h117q0 -115 -64.5 -190t-183.5 -75q-55 0 -99 20.5t-108 63.5q-59 39 -99 57.5 t-87 18.5q-35 0 -61.5 -18.5t-24.5 -44.5h-115zM559 487h373l-187 527z" />
<glyph unicode="&#xc4;" d="M45 0l571 1434h258l572 -1434h-342l-90 256h-537l-90 -256h-342zM358 1598v223h297v-223h-297zM559 487h373l-187 527zM835 1598v223h299v-223h-299z" />
<glyph unicode="&#xc5;" d="M45 0l571 1434h258l572 -1434h-342l-90 256h-537l-90 -256h-342zM541 1760q0 84 59.5 143t147.5 59q80 0 140.5 -59t60.5 -143q0 -82 -60.5 -141.5t-140.5 -59.5q-88 0 -147.5 58.5t-59.5 142.5zM559 487h373l-187 527zM670 1760q0 -33 20.5 -53.5t53.5 -20.5 q30 0 53 21.5t23 52.5q0 33 -23 54t-53 21q-33 0 -53.5 -21.5t-20.5 -53.5z" />
<glyph unicode="&#xc6;" horiz-adv-x="2070" d="M45 0l981 1434h320h639v-279h-639v-297h516v-262h-516v-317h659v-279h-975v379h-393l-258 -379h-334zM805 623h225v329z" />
<glyph unicode="&#xc7;" horiz-adv-x="1378" d="M66 717q0 238 79.5 402.5t225 247.5t342.5 83q152 0 279.5 -51t212.5 -155.5t104 -256.5h-305q-43 104 -105.5 144t-179.5 40q-326 0 -326 -454q0 -455 326 -455q119 0 182.5 41t104.5 146h307q-25 -207 -168.5 -324t-351.5 -137l-103 -109q84 -2 143.5 -48t59.5 -132 q0 -127 -107.5 -170t-304.5 -43v119q96 2 143.5 22.5t47.5 63.5q0 27 -17.5 43t-44.5 16q-39 0 -73 -33l-70 113l96 168q-233 45 -365 227.5t-132 491.5z" />
<glyph unicode="&#xc8;" horiz-adv-x="1148" d="M106 0v1434h955v-279h-637v-297h514v-262h-514v-317h657v-279h-975zM258 1821l233 -262h263l-84 262h-412z" />
<glyph unicode="&#xc9;" horiz-adv-x="1148" d="M106 0v1434h955v-279h-637v-297h514v-262h-514v-317h657v-279h-975zM479 1559h262l234 262h-412z" />
<glyph unicode="&#xca;" horiz-adv-x="1148" d="M106 0v1434h955v-279h-637v-297h514v-262h-514v-317h657v-279h-975zM201 1534l143 287h539l143 -287h-229l-182 160l-185 -160h-229z" />
<glyph unicode="&#xcb;" horiz-adv-x="1148" d="M106 0v1434h955v-279h-637v-297h514v-262h-514v-317h657v-279h-975zM225 1598v223h297v-223h-297zM702 1598v223h299v-223h-299z" />
<glyph unicode="&#xcc;" horiz-adv-x="530" d="M-90 1821l233 -262h263l-84 262h-412zM106 0v1434h318v-1434h-318z" />
<glyph unicode="&#xcd;" horiz-adv-x="530" d="M106 0v1434h318v-1434h-318zM129 1559h262l234 262h-412z" />
<glyph unicode="&#xce;" horiz-adv-x="530" d="M-150 1534l143 287h539l143 -287h-229l-182 160l-185 -160h-229zM106 0v1434h318v-1434h-318z" />
<glyph unicode="&#xcf;" horiz-adv-x="530" d="M-123 1598v223h297v-223h-297zM106 0v1434h318v-1434h-318zM354 1598v223h299v-223h-299z" />
<glyph unicode="&#xd0;" horiz-adv-x="1554" d="M106 602v205h125v627h562q325 0 500 -185.5t175 -531.5t-175 -531.5t-500 -185.5h-562v602h-125zM547 279h219q141 0 222 46t115 140t34 252t-34 252t-115 140t-222 46h-219v-348h299v-205h-299v-323z" />
<glyph unicode="&#xd1;" horiz-adv-x="1378" d="M106 0v1434h302l548 -881v881h316v-1434h-314l-534 883v-883h-318zM279 1635q0 115 64.5 189.5t183.5 74.5q55 0 101 -20.5t106 -61.5q57 -39 98 -58.5t88 -19.5q33 0 59.5 18.5t24.5 45.5h117q0 -115 -64.5 -190t-183.5 -75q-55 0 -99 20.5t-108 63.5q-59 39 -99 57.5 t-87 18.5q-35 0 -61.5 -18.5t-24.5 -44.5h-115z" />
<glyph unicode="&#xd2;" horiz-adv-x="1445" d="M66 717q0 356 176 544.5t481 188.5t481 -188.5t176 -544.5t-176 -544.5t-481 -188.5t-481 188t-176 545zM369 1821l233 -262h263l-84 262h-412zM393 717q0 -455 330 -455t330 455t-330 454q-330 0 -330 -454z" />
<glyph unicode="&#xd3;" horiz-adv-x="1445" d="M66 717q0 356 176 544.5t481 188.5t481 -188.5t176 -544.5t-176 -544.5t-481 -188.5t-481 188t-176 545zM393 717q0 -455 330 -455t330 455t-330 454q-330 0 -330 -454zM588 1559h262l234 262h-412z" />
<glyph unicode="&#xd4;" horiz-adv-x="1445" d="M66 717q0 356 176 544.5t481 188.5t481 -188.5t176 -544.5t-176 -544.5t-481 -188.5t-481 188t-176 545zM309 1534l143 287h539l143 -287h-229l-182 160l-185 -160h-229zM393 717q0 -455 330 -455t330 455t-330 454q-330 0 -330 -454z" />
<glyph unicode="&#xd5;" horiz-adv-x="1445" d="M66 717q0 356 176 544.5t481 188.5t481 -188.5t176 -544.5t-176 -544.5t-481 -188.5t-481 188t-176 545zM311 1635q0 115 64.5 189.5t183.5 74.5q55 0 101 -20.5t106 -61.5q57 -39 98 -58.5t88 -19.5q33 0 59.5 18.5t24.5 45.5h117q0 -115 -64.5 -190t-183.5 -75 q-55 0 -99 20.5t-108 63.5q-59 39 -99 57.5t-87 18.5q-35 0 -61.5 -18.5t-24.5 -44.5h-115zM393 717q0 -455 330 -455t330 455t-330 454q-330 0 -330 -454z" />
<glyph unicode="&#xd6;" horiz-adv-x="1445" d="M66 717q0 356 176 544.5t481 188.5t481 -188.5t176 -544.5t-176 -544.5t-481 -188.5t-481 188t-176 545zM336 1598v223h297v-223h-297zM393 717q0 -455 330 -455t330 455t-330 454q-330 0 -330 -454zM813 1598v223h299v-223h-299z" />
<glyph unicode="&#xd7;" horiz-adv-x="1083" d="M92 264l264 264l-264 265l178 180l267 -264l262 262l190 -191l-262 -262l264 -266l-180 -178l-264 264l-264 -264z" />
<glyph unicode="&#xd8;" horiz-adv-x="1445" d="M66 717q0 356 176 544.5t481 188.5q94 0 180 -18l45 94h328l-109 -228q103 -94 158 -240.5t55 -340.5q0 -356 -176 -544.5t-481 -188.5q-92 0 -176 18l-49 -104h-328l113 235q-104 92 -160.5 239.5t-56.5 344.5zM393 717q0 -158 41 -264l342 714q-33 4 -53 4 q-330 0 -330 -454zM674 266q33 -4 49 -4q330 0 330 455q0 152 -39 258z" />
<glyph unicode="&#xd9;" horiz-adv-x="1386" d="M106 541v893h318v-854q0 -162 73.5 -239t196.5 -77q121 0 195 77t74 239v854h317v-893q0 -166 -79 -292t-212 -194.5t-295 -68.5q-164 0 -298 68.5t-212 194.5t-78 292zM315 1821l233 -262h263l-84 262h-412z" />
<glyph unicode="&#xda;" horiz-adv-x="1386" d="M106 541v893h318v-854q0 -162 73.5 -239t196.5 -77q121 0 195 77t74 239v854h317v-893q0 -166 -79 -292t-212 -194.5t-295 -68.5q-164 0 -298 68.5t-212 194.5t-78 292zM535 1559h262l234 262h-412z" />
<glyph unicode="&#xdb;" horiz-adv-x="1386" d="M106 541v893h318v-854q0 -162 73.5 -239t196.5 -77q121 0 195 77t74 239v854h317v-893q0 -166 -79 -292t-212 -194.5t-295 -68.5q-164 0 -298 68.5t-212 194.5t-78 292zM256 1534l143 287h539l143 -287h-229l-182 160l-185 -160h-229z" />
<glyph unicode="&#xdc;" horiz-adv-x="1386" d="M106 541v893h318v-854q0 -162 73.5 -239t196.5 -77q121 0 195 77t74 239v854h317v-893q0 -166 -79 -292t-212 -194.5t-295 -68.5q-164 0 -298 68.5t-212 194.5t-78 292zM283 1598v223h297v-223h-297zM760 1598v223h299v-223h-299z" />
<glyph unicode="&#xdd;" horiz-adv-x="1452" d="M45 1434h354l326 -635l326 635h354l-522 -918v-516h-316v516zM590 1559h262l234 262h-412z" />
<glyph unicode="&#xde;" horiz-adv-x="1325" d="M106 0v1434h293v-277h275q172 0 304 -55t203.5 -153.5t71.5 -227.5q0 -207 -156.5 -321.5t-422.5 -114.5h-275v-285h-293zM399 537h279l86 -2q96 0 146.5 35.5t50.5 150.5q0 90 -39 130t-93.5 48t-150.5 8h-279v-370z" />
<glyph unicode="&#xdf;" horiz-adv-x="1286" d="M106 0v954q0 158 66 265.5t178.5 161t251.5 53.5q225 0 370.5 -99.5t145.5 -298.5q0 -70 -31.5 -126t-78.5 -87.5t-95 -36.5q72 -8 141.5 -55t112.5 -124t43 -167q0 -229 -138 -334.5t-429 -105.5h-74v252h80q123 0 196 39t73 149q0 203 -302 203h-47v250h47 q86 0 131.5 14.5t61.5 45t16 83.5q0 92 -53 120t-154 28q-109 0 -164 -55.5t-55 -174.5v-954h-293z" />
<glyph unicode="&#xe0;" horiz-adv-x="1159" d="M55 301q0 162 112 235.5t261 92.5l72 8q94 10 149.5 20.5t89.5 32.5v10q0 96 -46 125t-128 29q-76 0 -119 -21.5t-55 -78.5h-274q14 158 127.5 240.5t318.5 82.5q170 0 272.5 -45t149.5 -142t47 -259v-336q0 -88 80 -92v-195q-27 -12 -50.5 -15t-57.5 -3q-102 0 -168 44 t-66 126v8q-27 -57 -103.5 -121.5t-228.5 -64.5q-166 0 -274.5 79.5t-108.5 239.5zM221 1452l233 -262h263l-84 262h-412zM350 319q0 -49 33 -83.5t100 -34.5q102 0 166 41t90 86v168q-39 -18 -70.5 -25.5t-109.5 -19.5l-92 -15q-117 -14 -117 -117z" />
<glyph unicode="&#xe1;" horiz-adv-x="1159" d="M55 301q0 162 112 235.5t261 92.5l72 8q94 10 149.5 20.5t89.5 32.5v10q0 96 -46 125t-128 29q-76 0 -119 -21.5t-55 -78.5h-274q14 158 127.5 240.5t318.5 82.5q170 0 272.5 -45t149.5 -142t47 -259v-336q0 -88 80 -92v-195q-27 -12 -50.5 -15t-57.5 -3q-102 0 -168 44 t-66 126v8q-27 -57 -103.5 -121.5t-228.5 -64.5q-166 0 -274.5 79.5t-108.5 239.5zM350 319q0 -49 33 -83.5t100 -34.5q102 0 166 41t90 86v168q-39 -18 -70.5 -25.5t-109.5 -19.5l-92 -15q-117 -14 -117 -117zM440 1190h262l234 262h-412z" />
<glyph unicode="&#xe2;" horiz-adv-x="1159" d="M55 301q0 162 112 235.5t261 92.5l72 8q94 10 149.5 20.5t89.5 32.5v10q0 96 -46 125t-128 29q-76 0 -119 -21.5t-55 -78.5h-274q14 158 127.5 240.5t318.5 82.5q170 0 272.5 -45t149.5 -142t47 -259v-336q0 -88 80 -92v-195q-27 -12 -50.5 -15t-57.5 -3q-102 0 -168 44 t-66 126v8q-27 -57 -103.5 -121.5t-228.5 -64.5q-166 0 -274.5 79.5t-108.5 239.5zM162 1165l143 287h539l143 -287h-229l-182 160l-185 -160h-229zM350 319q0 -49 33 -83.5t100 -34.5q102 0 166 41t90 86v168q-39 -18 -70.5 -25.5t-109.5 -19.5l-92 -15q-117 -14 -117 -117 z" />
<glyph unicode="&#xe3;" horiz-adv-x="1159" d="M55 301q0 162 112 235.5t261 92.5l72 8q94 10 149.5 20.5t89.5 32.5v10q0 96 -46 125t-128 29q-76 0 -119 -21.5t-55 -78.5h-274q14 158 127.5 240.5t318.5 82.5q170 0 272.5 -45t149.5 -142t47 -259v-336q0 -88 80 -92v-195q-27 -12 -50.5 -15t-57.5 -3q-102 0 -168 44 t-66 126v8q-27 -57 -103.5 -121.5t-228.5 -64.5q-166 0 -274.5 79.5t-108.5 239.5zM164 1266q0 115 64.5 189.5t183.5 74.5q55 0 101 -20.5t106 -61.5q57 -39 98 -58.5t88 -19.5q33 0 59.5 18.5t24.5 45.5h117q0 -115 -64.5 -190t-183.5 -75q-55 0 -99 20.5t-108 63.5 q-59 39 -99 57.5t-87 18.5q-35 0 -61.5 -18.5t-24.5 -44.5h-115zM350 319q0 -49 33 -83.5t100 -34.5q102 0 166 41t90 86v168q-39 -18 -70.5 -25.5t-109.5 -19.5l-92 -15q-117 -14 -117 -117z" />
<glyph unicode="&#xe4;" horiz-adv-x="1159" d="M55 301q0 162 112 235.5t261 92.5l72 8q94 10 149.5 20.5t89.5 32.5v10q0 96 -46 125t-128 29q-76 0 -119 -21.5t-55 -78.5h-274q14 158 127.5 240.5t318.5 82.5q170 0 272.5 -45t149.5 -142t47 -259v-336q0 -88 80 -92v-195q-27 -12 -50.5 -15t-57.5 -3q-102 0 -168 44 t-66 126v8q-27 -57 -103.5 -121.5t-228.5 -64.5q-166 0 -274.5 79.5t-108.5 239.5zM186 1229v223h297v-223h-297zM350 319q0 -49 33 -83.5t100 -34.5q102 0 166 41t90 86v168q-39 -18 -70.5 -25.5t-109.5 -19.5l-92 -15q-117 -14 -117 -117zM663 1229v223h299v-223h-299z " />
<glyph unicode="&#xe5;" horiz-adv-x="1159" d="M55 301q0 162 112 235.5t261 92.5l72 8q94 10 149.5 20.5t89.5 32.5v10q0 96 -46 125t-128 29q-76 0 -119 -21.5t-55 -78.5h-274q14 158 127.5 240.5t318.5 82.5q170 0 272.5 -45t149.5 -142t47 -259v-336q0 -88 80 -92v-195q-27 -12 -50.5 -15t-57.5 -3q-102 0 -168 44 t-66 126v8q-27 -57 -103.5 -121.5t-228.5 -64.5q-166 0 -274.5 79.5t-108.5 239.5zM350 319q0 -49 33 -83.5t100 -34.5q102 0 166 41t90 86v168q-39 -18 -70.5 -25.5t-109.5 -19.5l-92 -15q-117 -14 -117 -117zM371 1391q0 84 59.5 143t147.5 59q80 0 140.5 -59t60.5 -143 q0 -82 -60.5 -141.5t-140.5 -59.5q-88 0 -147.5 58.5t-59.5 142.5zM500 1391q0 -33 20.5 -53.5t53.5 -20.5q30 0 53 21.5t23 52.5q0 33 -23 54t-53 21q-33 0 -53.5 -21.5t-20.5 -53.5z" />
<glyph unicode="&#xe6;" horiz-adv-x="1814" d="M55 301q0 162 112 235.5t261 92.5l72 8q92 10 147 20.5t90 32.5q-6 74 -31.5 110t-60.5 45t-86 9q-74 0 -115 -19.5t-53 -80.5h-274q14 158 127.5 240.5t316.5 82.5q129 0 217 -27.5t144 -88.5q72 59 158.5 87.5t179.5 28.5q221 0 360 -145.5t139 -439.5v-54h-727 q18 -113 84 -166t168 -53q59 0 108.5 22.5t73.5 65.5h275q-55 -168 -175 -246.5t-313 -78.5q-117 0 -231.5 53t-187.5 160l-19 -23q-12 -6 -45 -39q-66 -66 -140.5 -108.5t-191.5 -42.5q-166 0 -274.5 79.5t-108.5 239.5zM350 319q0 -49 33 -83.5t100 -34.5q156 0 256 118 v177q-39 -18 -70.5 -25.5t-109.5 -19.5l-92 -15q-117 -14 -117 -117zM1034 635h434q-14 104 -66 154.5t-142 50.5q-89 0 -147 -52.5t-79 -152.5z" />
<glyph unicode="&#xe7;" horiz-adv-x="1091" d="M55 526q0 193 74 316t188.5 179t245.5 56q379 0 459 -362h-268q-35 125 -185 125q-109 0 -166 -80t-57 -234q0 -150 57.5 -228.5t165.5 -78.5q150 0 193 137h264q-35 -172 -131 -259t-231 -107l-105 -111q84 -2 143.5 -48t59.5 -132q0 -127 -107.5 -170t-304.5 -43v119 q96 2 143.5 22.5t47.5 63.5q0 27 -17.5 43t-44.5 16q-39 0 -73 -33l-70 113l94 166q-164 39 -269.5 170t-105.5 360z" />
<glyph unicode="&#xe8;" horiz-adv-x="1130" d="M55 526q0 188 76 312.5t194.5 181.5t249.5 57q221 0 360.5 -145.5t139.5 -439.5v-54h-725q18 -113 83 -166t167 -53q59 0 108.5 22.5t73.5 65.5h277q-57 -168 -177 -246.5t-311 -78.5q-123 0 -241.5 57t-196.5 179t-78 308zM219 1452l233 -262h263l-84 262h-412zM352 635 h432q-14 104 -66 154.5t-143 50.5q-88 0 -145 -52.5t-78 -152.5z" />
<glyph unicode="&#xe9;" horiz-adv-x="1130" d="M55 526q0 188 76 312.5t194.5 181.5t249.5 57q221 0 360.5 -145.5t139.5 -439.5v-54h-725q18 -113 83 -166t167 -53q59 0 108.5 22.5t73.5 65.5h277q-57 -168 -177 -246.5t-311 -78.5q-123 0 -241.5 57t-196.5 179t-78 308zM352 635h432q-14 104 -66 154.5t-143 50.5 q-88 0 -145 -52.5t-78 -152.5zM438 1190h262l234 262h-412z" />
<glyph unicode="&#xea;" horiz-adv-x="1130" d="M55 526q0 188 76 312.5t194.5 181.5t249.5 57q221 0 360.5 -145.5t139.5 -439.5v-54h-725q18 -113 83 -166t167 -53q59 0 108.5 22.5t73.5 65.5h277q-57 -168 -177 -246.5t-311 -78.5q-123 0 -241.5 57t-196.5 179t-78 308zM160 1165l143 287h539l143 -287h-229l-182 160 l-185 -160h-229zM352 635h432q-14 104 -66 154.5t-143 50.5q-88 0 -145 -52.5t-78 -152.5z" />
<glyph unicode="&#xeb;" horiz-adv-x="1130" d="M55 526q0 188 76 312.5t194.5 181.5t249.5 57q221 0 360.5 -145.5t139.5 -439.5v-54h-725q18 -113 83 -166t167 -53q59 0 108.5 22.5t73.5 65.5h277q-57 -168 -177 -246.5t-311 -78.5q-123 0 -241.5 57t-196.5 179t-78 308zM184 1229v223h297v-223h-297zM352 635h432 q-14 104 -66 154.5t-143 50.5q-88 0 -145 -52.5t-78 -152.5zM661 1229v223h299v-223h-299z" />
<glyph unicode="&#xec;" horiz-adv-x="507" d="M-100 1452l233 -262h263l-84 262h-412zM106 0v1065h293v-1065h-293z" />
<glyph unicode="&#xed;" horiz-adv-x="507" d="M106 0v1065h293v-1065h-293zM119 1190h262l234 262h-412z" />
<glyph unicode="&#xee;" horiz-adv-x="507" d="M-160 1165l143 287h539l143 -287h-229l-182 160l-185 -160h-229zM106 0v1065h293v-1065h-293z" />
<glyph unicode="&#xef;" horiz-adv-x="507" d="M-135 1229v223h297v-223h-297zM106 0v1065h293v-1065h-293zM342 1229v223h299v-223h-299z" />
<glyph unicode="&#xf0;" horiz-adv-x="1234" d="M55 516q0 178 66.5 302t183.5 185.5t268 61.5q31 0 67 -3t48 -9l-65 98l-193 -23v162l86 10l-106 134h309l80 -101l178 23v-162l-64 -8q115 -160 157 -313.5t42 -344.5q0 -180 -73.5 -304t-196.5 -184t-269 -60q-135 0 -252.5 60t-191.5 181t-74 295zM348 516 q0 -145 64.5 -215t160.5 -70q101 0 173.5 71t72.5 214q0 156 -69.5 226.5t-176.5 70.5q-94 0 -159.5 -71.5t-65.5 -225.5z" />
<glyph unicode="&#xf1;" horiz-adv-x="1230" d="M106 0v1065h293v-209q35 76 125 147.5t221 71.5q377 0 377 -432v-643h-293v629q0 104 -45 150t-127 46q-66 0 -122 -33.5t-91.5 -80.5t-44.5 -84v-627h-293zM205 1266q0 115 64.5 189.5t183.5 74.5q55 0 101 -20.5t106 -61.5q57 -39 98 -58.5t88 -19.5q33 0 59.5 18.5 t24.5 45.5h117q0 -115 -64.5 -190t-183.5 -75q-55 0 -99 20.5t-108 63.5q-59 39 -99 57.5t-87 18.5q-35 0 -61.5 -18.5t-24.5 -44.5h-115z" />
<glyph unicode="&#xf2;" horiz-adv-x="1150" d="M55 526q0 186 79 311.5t199 182.5t242 57q123 0 242 -57t198 -182t79 -312q0 -186 -79 -309t-198 -179t-242 -56t-242.5 56t-198.5 179t-79 309zM221 1452l233 -262h263l-84 262h-412zM346 526q0 -156 63.5 -231.5t165.5 -75.5q100 0 164 77t64 230q0 160 -63.5 237 t-164.5 77q-102 0 -165.5 -77t-63.5 -237z" />
<glyph unicode="&#xf3;" horiz-adv-x="1150" d="M55 526q0 186 79 311.5t199 182.5t242 57q123 0 242 -57t198 -182t79 -312q0 -186 -79 -309t-198 -179t-242 -56t-242.5 56t-198.5 179t-79 309zM346 526q0 -156 63.5 -231.5t165.5 -75.5q100 0 164 77t64 230q0 160 -63.5 237t-164.5 77q-102 0 -165.5 -77t-63.5 -237z M440 1190h262l234 262h-412z" />
<glyph unicode="&#xf4;" horiz-adv-x="1150" d="M55 526q0 186 79 311.5t199 182.5t242 57q123 0 242 -57t198 -182t79 -312q0 -186 -79 -309t-198 -179t-242 -56t-242.5 56t-198.5 179t-79 309zM162 1165l143 287h539l143 -287h-229l-182 160l-185 -160h-229zM346 526q0 -156 63.5 -231.5t165.5 -75.5q100 0 164 77 t64 230q0 160 -63.5 237t-164.5 77q-102 0 -165.5 -77t-63.5 -237z" />
<glyph unicode="&#xf5;" horiz-adv-x="1150" d="M55 526q0 186 79 311.5t199 182.5t242 57q123 0 242 -57t198 -182t79 -312q0 -186 -79 -309t-198 -179t-242 -56t-242.5 56t-198.5 179t-79 309zM164 1266q0 115 64.5 189.5t183.5 74.5q55 0 101 -20.5t106 -61.5q57 -39 98 -58.5t88 -19.5q33 0 59.5 18.5t24.5 45.5h117 q0 -115 -64.5 -190t-183.5 -75q-55 0 -99 20.5t-108 63.5q-59 39 -99 57.5t-87 18.5q-35 0 -61.5 -18.5t-24.5 -44.5h-115zM346 526q0 -156 63.5 -231.5t165.5 -75.5q100 0 164 77t64 230q0 160 -63.5 237t-164.5 77q-102 0 -165.5 -77t-63.5 -237z" />
<glyph unicode="&#xf6;" horiz-adv-x="1150" d="M55 526q0 186 79 311.5t199 182.5t242 57q123 0 242 -57t198 -182t79 -312q0 -186 -79 -309t-198 -179t-242 -56t-242.5 56t-198.5 179t-79 309zM186 1229v223h297v-223h-297zM346 526q0 -156 63.5 -231.5t165.5 -75.5q100 0 164 77t64 230q0 160 -63.5 237t-164.5 77 q-102 0 -165.5 -77t-63.5 -237zM663 1229v223h299v-223h-299z" />
<glyph unicode="&#xf7;" horiz-adv-x="976" d="M86 463v205h801v-205h-801zM362 219q0 53 37 89t90 36q51 0 87 -37t36 -88q0 -53 -35.5 -90t-87.5 -37q-53 0 -90 37t-37 90zM362 915q0 53 37 89t90 36q51 0 87 -36.5t36 -88.5q0 -53 -35.5 -90t-87.5 -37q-53 0 -90 37t-37 90z" />
<glyph unicode="&#xf8;" horiz-adv-x="1150" d="M55 526q0 186 79 311.5t199 182.5t242 57q47 0 105 -10l55 117h297l-110 -234q172 -152 172 -424q0 -186 -79 -309t-198 -179t-242 -56q-53 0 -112 12l-47 -96h-297l104 215q-78 68 -123 172t-45 241zM346 526q0 -64 14 -125l211 439q-100 -2 -162.5 -79t-62.5 -235z M571 219h4q101 0 164.5 77t63.5 230q0 78 -17 144z" />
<glyph unicode="&#xf9;" horiz-adv-x="1230" d="M109 422v643h292v-629q0 -104 45.5 -150t126.5 -46q66 0 122.5 33.5t92 80.5t43.5 84v627h293v-1065h-293v209q-35 -76 -125 -147.5t-221 -71.5q-377 0 -376 432zM260 1452l233 -262h263l-84 262h-412z" />
<glyph unicode="&#xfa;" horiz-adv-x="1230" d="M109 422v643h292v-629q0 -104 45.5 -150t126.5 -46q66 0 122.5 33.5t92 80.5t43.5 84v627h293v-1065h-293v209q-35 -76 -125 -147.5t-221 -71.5q-377 0 -376 432zM479 1190h262l234 262h-412z" />
<glyph unicode="&#xfb;" horiz-adv-x="1230" d="M109 422v643h292v-629q0 -104 45.5 -150t126.5 -46q66 0 122.5 33.5t92 80.5t43.5 84v627h293v-1065h-293v209q-35 -76 -125 -147.5t-221 -71.5q-377 0 -376 432zM201 1165l143 287h539l143 -287h-229l-182 160l-185 -160h-229z" />
<glyph unicode="&#xfc;" horiz-adv-x="1230" d="M109 422v643h292v-629q0 -104 45.5 -150t126.5 -46q66 0 122.5 33.5t92 80.5t43.5 84v627h293v-1065h-293v209q-35 -76 -125 -147.5t-221 -71.5q-377 0 -376 432zM225 1229v223h297v-223h-297zM702 1229v223h299v-223h-299z" />
<glyph unicode="&#xfd;" horiz-adv-x="1183" d="M35 1065h291l262 -731l270 731h291l-416 -1075q-61 -158 -144 -240t-179.5 -108.5t-237.5 -32.5v256q100 4 172 25.5t107 82.5zM455 1190h262l234 262h-412z" />
<glyph unicode="&#xfe;" horiz-adv-x="1169" d="M106 -389v1454v369h293v-500q29 47 60 72q16 16 33 24q72 47 184 47h2h2q47 0 106 -16q143 -43 243.5 -175t100.5 -354q0 -147 -45 -254.5t-120 -177.5q-61 -59 -138 -88.5t-147 -29.5q-111 0 -178.5 42t-93.5 89q-8 16 -9 20v-522h-293zM387 532q0 -72 16 -133 q43 -168 211 -168q120 0 179 88q43 80 43 213q0 150 -54 226q-55 74 -168 73q-102 0 -164.5 -73.5t-62.5 -225.5z" />
<glyph unicode="&#xff;" horiz-adv-x="1183" d="M35 1065h291l262 -731l270 731h291l-416 -1075q-61 -158 -144 -240t-179.5 -108.5t-237.5 -32.5v256q100 4 172 25.5t107 82.5zM203 1229v223h297v-223h-297zM680 1229v223h299v-223h-299z" />
<glyph unicode="&#x152;" horiz-adv-x="2101" d="M66 717q0 356 176 544.5t481 188.5q193 0 338 -78v62h954v-279h-639v-297h516v-262h-516v-317h660v-279h-975v61q-145 -78 -338 -77q-305 0 -481 188t-176 545zM393 717q0 -455 330 -455t330 455t-330 454q-330 0 -330 -454z" />
<glyph unicode="&#x153;" horiz-adv-x="1878" d="M55 526q0 186 79 311.5t199 182.5t242 57q98 0 197.5 -38t173.5 -113q74 76 173.5 113.5t205.5 37.5q219 0 358.5 -145.5t139.5 -439.5v-54h-725q18 -111 83.5 -165t166.5 -54q59 0 109 22.5t73 65.5h276q-57 -168 -177 -246.5t-310 -78.5q-98 0 -197.5 37.5 t-173.5 111.5q-74 -74 -174 -111.5t-199 -37.5q-123 0 -242.5 56t-198.5 179t-79 309zM346 526q0 -156 63.5 -231.5t165.5 -75.5q97 0 159.5 69.5t68.5 213.5v24v27q-6 145 -68.5 216t-159.5 71q-102 0 -165.5 -77t-63.5 -237zM1100 635h432q-14 104 -65.5 154.5 t-141.5 50.5q-88 0 -146.5 -51.5t-78.5 -153.5z" />
<glyph unicode="&#x178;" horiz-adv-x="1452" d="M45 1434h354l326 -635l326 635h354l-522 -918v-516h-316v516zM338 1598v223h297v-223h-297zM815 1598v223h299v-223h-299z" />
<glyph unicode="&#x2c6;" horiz-adv-x="825" d="M0 1165l143 287h539l143 -287h-229l-182 160l-185 -160h-229z" />
<glyph unicode="&#x2dc;" horiz-adv-x="841" d="M0 1266q0 115 64.5 189.5t183.5 74.5q55 0 101 -20.5t106 -61.5q57 -39 98 -58.5t88 -19.5q33 0 59.5 18.5t24.5 45.5h117q0 -115 -64.5 -190t-183.5 -75q-55 0 -99 20.5t-108 63.5q-59 39 -99 57.5t-87 18.5q-35 0 -61.5 -18.5t-24.5 -44.5h-115z" />
<glyph unicode="&#x2000;" horiz-adv-x="981" />
<glyph unicode="&#x2001;" horiz-adv-x="1962" />
<glyph unicode="&#x2002;" horiz-adv-x="981" />
<glyph unicode="&#x2003;" horiz-adv-x="1962" />
<glyph unicode="&#x2004;" horiz-adv-x="654" />
<glyph unicode="&#x2005;" horiz-adv-x="490" />
<glyph unicode="&#x2006;" horiz-adv-x="327" />
<glyph unicode="&#x2007;" horiz-adv-x="327" />
<glyph unicode="&#x2008;" horiz-adv-x="245" />
<glyph unicode="&#x2009;" horiz-adv-x="392" />
<glyph unicode="&#x200a;" horiz-adv-x="109" />
<glyph unicode="&#x2010;" horiz-adv-x="923" d="M92 463v205h739v-205h-739z" />
<glyph unicode="&#x2011;" horiz-adv-x="923" d="M92 463v205h739v-205h-739z" />
<glyph unicode="&#x2012;" horiz-adv-x="923" d="M92 463v205h739v-205h-739z" />
<glyph unicode="&#x2013;" horiz-adv-x="1228" d="M92 442v240h1045v-240h-1045z" />
<glyph unicode="&#x2014;" horiz-adv-x="1351" d="M92 442v240h1168v-240h-1168z" />
<glyph unicode="&#x2018;" horiz-adv-x="518" d="M82 748v333q0 356 364 353v-91q-109 -25 -108 -184v-65h108v-346h-364z" />
<glyph unicode="&#x2019;" horiz-adv-x="518" d="M70 748v88q111 27 110 186v65h-108v347h364v-334q0 -362 -366 -352z" />
<glyph unicode="&#x201a;" horiz-adv-x="518" d="M80 -279q111 25 111 185v65h-109v346h365v-333q0 -211 -106.5 -283t-260.5 -70v90z" />
<glyph unicode="&#x201c;" horiz-adv-x="1011" d="M82 750v333q0 356 364 353v-91q-109 -25 -108 -184v-65h108v-346h-364zM578 750v333q0 356 364 353v-91q-109 -25 -108 -184v-65h108v-346h-364z" />
<glyph unicode="&#x201d;" horiz-adv-x="1011" d="M72 745v91q109 25 108 184v65h-108v347h364v-334q0 -356 -364 -353zM565 745v91q109 25 109 184v65h-109v347h365v-334q0 -356 -365 -353z" />
<glyph unicode="&#x201e;" horiz-adv-x="1042" d="M80 -279q111 25 111 185v65h-109v346h365v-333q0 -211 -106.5 -283t-260.5 -70v90zM606 -279q111 25 111 185v65h-109v346h365v-333q0 -211 -106.5 -283t-260.5 -70v90z" />
<glyph unicode="&#x2022;" horiz-adv-x="569" d="M102 541q0 74 53.5 127t129.5 53t129 -53.5t53 -126.5q0 -76 -53.5 -129.5t-128.5 -53.5q-76 0 -129.5 53.5t-53.5 129.5z" />
<glyph unicode="&#x2026;" horiz-adv-x="1554" d="M102 0v332h324v-332h-324zM608 0v332h324v-332h-324zM1114 0v332h324v-332h-324z" />
<glyph unicode="&#x202f;" horiz-adv-x="392" />
<glyph unicode="&#x2039;" horiz-adv-x="473" d="M92 338v541l289 141v-227l-162 -185l162 -184v-229z" />
<glyph unicode="&#x203a;" horiz-adv-x="473" d="M92 199v229l162 184l-162 183v229l289 -143v-539z" />
<glyph unicode="&#x205f;" horiz-adv-x="490" />
<glyph unicode="&#x20ac;" horiz-adv-x="1470" d="M72 465v176h88q-2 25 -2 76v24h-86v177h102q47 260 212 396t419 136q152 0 279.5 -51t212.5 -155.5t104 -256.5h-305q-43 104 -105.5 144t-179.5 40q-244 0 -305 -253h280v-177h-301v-24q0 -51 2 -76h299v-176h-266q74 -203 291 -203q119 0 182.5 41t104.5 146h307 q-18 -154 -103 -258.5t-214.5 -155.5t-282.5 -51q-240 0 -401.5 122.5t-219.5 358.5h-112z" />
<glyph unicode="&#x2122;" horiz-adv-x="1101" d="M102 1337v97h363v-97h-125v-272h-115v272h-123zM530 1065v369h115l119 -277l121 277h114v-369h-114v186l-70 -186h-100l-70 186v-186h-115z" />
<glyph unicode="&#x25fc;" horiz-adv-x="1064" d="M0 0v1065h1065v-1065h-1065z" />
</font>
</defs>
</svg>
